solid OpenSCAD_Model
  facet normal -1 0 0
    outer loop
      vertex -27 -32 0
      vertex -27 -22 12
      vertex -27 -22 0
    endloop
  endfacet
  facet normal -1 -0 0
    outer loop
      vertex -27 -22 12
      vertex -27 -32 0
      vertex -27 -32 12
    endloop
  endfacet
  facet normal 0 0 1
    outer loop
      vertex -25 -22 12
      vertex -27 -22 12
      vertex -25 -30 12
    endloop
  endfacet
  facet normal 0 0 1
    outer loop
      vertex 27 32 12
      vertex 25 30 12
      vertex 27 -32 12
    endloop
  endfacet
  facet normal -0 0 1
    outer loop
      vertex -25 32 12
      vertex 25 30 12
      vertex 27 32 12
    endloop
  endfacet
  facet normal 0 0 1
    outer loop
      vertex 25 30 12
      vertex -25 32 12
      vertex -25 30 12
    endloop
  endfacet
  facet normal -0 0 1
    outer loop
      vertex 25 -30 12
      vertex 27 -32 12
      vertex 25 30 12
    endloop
  endfacet
  facet normal -0 0 1
    outer loop
      vertex -25 -30 12
      vertex 27 -32 12
      vertex 25 -30 12
    endloop
  endfacet
  facet normal 0 0 1
    outer loop
      vertex -25 -30 12
      vertex -27 -32 12
      vertex 27 -32 12
    endloop
  endfacet
  facet normal 0 0 1
    outer loop
      vertex -27 -32 12
      vertex -25 -30 12
      vertex -27 -22 12
    endloop
  endfacet
  facet normal 1 -0 0
    outer loop
      vertex 27 -32 12
      vertex 27 32 0
      vertex 27 32 12
    endloop
  endfacet
  facet normal 1 0 0
    outer loop
      vertex 27 32 0
      vertex 27 -32 12
      vertex 27 -32 0
    endloop
  endfacet
  facet normal 0 1 0
    outer loop
      vertex 27 32 12
      vertex 27 32 0
      vertex -25 32 12
    endloop
  endfacet
  facet normal 0 1 0
    outer loop
      vertex -40.49 32 21.75
      vertex -25 32 30
      vertex -31.49 32 21.75
    endloop
  endfacet
  facet normal 0 1 -0
    outer loop
      vertex -25 32 12
      vertex -31.49 32 21.75
      vertex -25 32 30
    endloop
  endfacet
  facet normal 0 1 0
    outer loop
      vertex -31.49 32 18.25
      vertex -25 32 12
      vertex -40.49 32 18.25
    endloop
  endfacet
  facet normal 0 1 0
    outer loop
      vertex -31.49 32 21.75
      vertex -25 32 12
      vertex -31.49 32 18.25
    endloop
  endfacet
  facet normal 0 1 0
    outer loop
      vertex -25 32 30
      vertex -40.49 32 21.75
      vertex -49 32 30
    endloop
  endfacet
  facet normal 0 1 -0
    outer loop
      vertex -40.49 32 18.25
      vertex -49 32 30
      vertex -40.49 32 21.75
    endloop
  endfacet
  facet normal 0 1 0
    outer loop
      vertex -40.49 32 18.25
      vertex -49 32 0
      vertex -49 32 30
    endloop
  endfacet
  facet normal 0 1 0
    outer loop
      vertex -25 32 12
      vertex -49 32 0
      vertex -40.49 32 18.25
    endloop
  endfacet
  facet normal 0 1 0
    outer loop
      vertex -49 32 0
      vertex -25 32 12
      vertex 27 32 0
    endloop
  endfacet
  facet normal 0 0 -1
    outer loop
      vertex 18.701 14.2025 0
      vertex 27 32 0
      vertex 27 -32 0
    endloop
  endfacet
  facet normal 0 0 -1
    outer loop
      vertex 27 32 0
      vertex 18.701 14.2025 0
      vertex 18.8 14.7 0
    endloop
  endfacet
  facet normal 0 0 -1
    outer loop
      vertex 27 -32 0
      vertex 18.4192 13.7808 0
      vertex 18.701 14.2025 0
    endloop
  endfacet
  facet normal 0 0 -1
    outer loop
      vertex 13.6192 -21.7808 0
      vertex 18.4192 13.7808 0
      vertex 27 -32 0
    endloop
  endfacet
  facet normal 0 0 -1
    outer loop
      vertex 18.4192 13.7808 0
      vertex 13.6192 -21.7808 0
      vertex 17.9975 13.499 0
    endloop
  endfacet
  facet normal 0 0 -1
    outer loop
      vertex 13.1975 -21.499 0
      vertex 17.9975 13.499 0
      vertex 13.6192 -21.7808 0
    endloop
  endfacet
  facet normal 0 0 -1
    outer loop
      vertex 17.9975 13.499 0
      vertex 13.1975 -21.499 0
      vertex 17.5 13.4 0
    endloop
  endfacet
  facet normal 0 0 -1
    outer loop
      vertex 12.7 -21.4 0
      vertex 17.5 13.4 0
      vertex 13.1975 -21.499 0
    endloop
  endfacet
  facet normal 0 0 -1
    outer loop
      vertex 13.6192 -21.7808 0
      vertex 27 -32 0
      vertex 13.901 -22.2025 0
    endloop
  endfacet
  facet normal 0 0 -1
    outer loop
      vertex 13.901 -22.2025 0
      vertex 27 -32 0
      vertex 14 -22.7 0
    endloop
  endfacet
  facet normal 0 0 -1
    outer loop
      vertex 27 -32 0
      vertex 13.901 -23.1975 0
      vertex 14 -22.7 0
    endloop
  endfacet
  facet normal 0 0 -1
    outer loop
      vertex 27 -32 0
      vertex 13.6192 -23.6192 0
      vertex 13.901 -23.1975 0
    endloop
  endfacet
  facet normal 0 0 -1
    outer loop
      vertex 27 -32 0
      vertex 13.1975 -23.901 0
      vertex 13.6192 -23.6192 0
    endloop
  endfacet
  facet normal 0 0 -1
    outer loop
      vertex 27 -32 0
      vertex 12.7 -24 0
      vertex 13.1975 -23.901 0
    endloop
  endfacet
  facet normal 0 0 -1
    outer loop
      vertex 27 -32 0
      vertex 12.2025 -23.901 0
      vertex 12.7 -24 0
    endloop
  endfacet
  facet normal 0 0 -1
    outer loop
      vertex 11.499 -23.1975 0
      vertex -11.4 -22.7 0
      vertex 11.4 -22.7 0
    endloop
  endfacet
  facet normal 0 0 -1
    outer loop
      vertex -11.499 -23.1975 0
      vertex 11.499 -23.1975 0
      vertex 11.7808 -23.6192 0
    endloop
  endfacet
  facet normal 0 0 -1
    outer loop
      vertex -11.7808 -23.6192 0
      vertex 11.7808 -23.6192 0
      vertex 12.2025 -23.901 0
    endloop
  endfacet
  facet normal 0 0 -1
    outer loop
      vertex -12.2025 -23.901 0
      vertex 12.2025 -23.901 0
      vertex 27 -32 0
    endloop
  endfacet
  facet normal 0 0 -1
    outer loop
      vertex 11.499 -23.1975 0
      vertex -11.499 -23.1975 0
      vertex -11.4 -22.7 0
    endloop
  endfacet
  facet normal 0 0 -1
    outer loop
      vertex 11.7808 -23.6192 0
      vertex -11.7808 -23.6192 0
      vertex -11.499 -23.1975 0
    endloop
  endfacet
  facet normal 0 0 -1
    outer loop
      vertex 12.2025 -23.901 0
      vertex -12.2025 -23.901 0
      vertex -11.7808 -23.6192 0
    endloop
  endfacet
  facet normal 0 0 -1
    outer loop
      vertex -27 -32 0
      vertex -12.2025 -23.901 0
      vertex 27 -32 0
    endloop
  endfacet
  facet normal 0 0 -1
    outer loop
      vertex -12.2025 -23.901 0
      vertex -27 -32 0
      vertex -12.7 -24 0
    endloop
  endfacet
  facet normal -0 0 -1
    outer loop
      vertex 16.2 14.7 0
      vertex -16.299 14.2025 0
      vertex -16.2 14.7 0
    endloop
  endfacet
  facet normal 0 0 -1
    outer loop
      vertex -13.901 -22.2025 0
      vertex -16.5808 13.7808 0
      vertex -16.299 14.2025 0
    endloop
  endfacet
  facet normal 0 0 -1
    outer loop
      vertex -13.901 -22.2025 0
      vertex -17.0025 13.499 0
      vertex -16.5808 13.7808 0
    endloop
  endfacet
  facet normal 0 0 -1
    outer loop
      vertex -13.901 -22.2025 0
      vertex -17.5 13.4 0
      vertex -17.0025 13.499 0
    endloop
  endfacet
  facet normal 0 0 -1
    outer loop
      vertex -13.901 -22.2025 0
      vertex -27 -22 0
      vertex -17.5 13.4 0
    endloop
  endfacet
  facet normal -0 0 -1
    outer loop
      vertex -17.5 13.4 0
      vertex -27 -22 0
      vertex -17.9975 13.499 0
    endloop
  endfacet
  facet normal -0 0 -1
    outer loop
      vertex -17.9975 13.499 0
      vertex -27 -22 0
      vertex -18.4192 13.7808 0
    endloop
  endfacet
  facet normal 0 0 -1
    outer loop
      vertex -49 -22 0
      vertex -18.4192 13.7808 0
      vertex -27 -22 0
    endloop
  endfacet
  facet normal 0 0 -1
    outer loop
      vertex -13.901 -23.1975 0
      vertex -27 -22 0
      vertex -14 -22.7 0
    endloop
  endfacet
  facet normal 0 0 -1
    outer loop
      vertex -27 -22 0
      vertex -13.901 -23.1975 0
      vertex -27 -32 0
    endloop
  endfacet
  facet normal -0 0 -1
    outer loop
      vertex -13.6192 -23.6192 0
      vertex -27 -32 0
      vertex -13.901 -23.1975 0
    endloop
  endfacet
  facet normal -0 0 -1
    outer loop
      vertex -13.1975 -23.901 0
      vertex -27 -32 0
      vertex -13.6192 -23.6192 0
    endloop
  endfacet
  facet normal -0 0 -1
    outer loop
      vertex -12.7 -24 0
      vertex -27 -32 0
      vertex -13.1975 -23.901 0
    endloop
  endfacet
  facet normal 0 0 -1
    outer loop
      vertex 18.701 15.1975 0
      vertex 27 32 0
      vertex 18.8 14.7 0
    endloop
  endfacet
  facet normal 0 0 -1
    outer loop
      vertex 18.4192 15.6192 0
      vertex 27 32 0
      vertex 18.701 15.1975 0
    endloop
  endfacet
  facet normal 0 0 -1
    outer loop
      vertex 17.9975 15.901 0
      vertex 27 32 0
      vertex 18.4192 15.6192 0
    endloop
  endfacet
  facet normal 0 0 -1
    outer loop
      vertex 17.5 16 0
      vertex 27 32 0
      vertex 17.9975 15.901 0
    endloop
  endfacet
  facet normal 0 0 -1
    outer loop
      vertex 17.0025 15.901 0
      vertex 27 32 0
      vertex 17.5 16 0
    endloop
  endfacet
  facet normal 0 0 -1
    outer loop
      vertex 16.5808 15.6192 0
      vertex 27 32 0
      vertex 17.0025 15.901 0
    endloop
  endfacet
  facet normal 0 0 -1
    outer loop
      vertex -16.5808 15.6192 0
      vertex 16.5808 15.6192 0
      vertex 16.299 15.1975 0
    endloop
  endfacet
  facet normal -0 0 -1
    outer loop
      vertex 17.5 13.4 0
      vertex 12.7 -21.4 0
      vertex 17.0025 13.499 0
    endloop
  endfacet
  facet normal 0 0 -1
    outer loop
      vertex 12.2025 -21.499 0
      vertex 17.0025 13.499 0
      vertex 12.7 -21.4 0
    endloop
  endfacet
  facet normal -0 0 -1
    outer loop
      vertex 17.0025 13.499 0
      vertex 12.2025 -21.499 0
      vertex 16.5808 13.7808 0
    endloop
  endfacet
  facet normal 0 0 -1
    outer loop
      vertex -16.299 14.2025 0
      vertex 16.5808 13.7808 0
      vertex 12.2025 -21.499 0
    endloop
  endfacet
  facet normal 0 0 -1
    outer loop
      vertex 16.5808 13.7808 0
      vertex -16.299 14.2025 0
      vertex 16.299 14.2025 0
    endloop
  endfacet
  facet normal 0 0 -1
    outer loop
      vertex -12.2025 -21.499 0
      vertex 12.2025 -21.499 0
      vertex 11.7808 -21.7808 0
    endloop
  endfacet
  facet normal 0 0 -1
    outer loop
      vertex -11.7808 -21.7808 0
      vertex 11.7808 -21.7808 0
      vertex 11.499 -22.2025 0
    endloop
  endfacet
  facet normal 0 0 -1
    outer loop
      vertex -11.499 -22.2025 0
      vertex 11.499 -22.2025 0
      vertex 11.4 -22.7 0
    endloop
  endfacet
  facet normal 0 0 -1
    outer loop
      vertex -11.499 -22.2025 0
      vertex 11.4 -22.7 0
      vertex -11.4 -22.7 0
    endloop
  endfacet
  facet normal 0 0 -1
    outer loop
      vertex 11.499 -22.2025 0
      vertex -11.499 -22.2025 0
      vertex -11.7808 -21.7808 0
    endloop
  endfacet
  facet normal 0 0 -1
    outer loop
      vertex 11.7808 -21.7808 0
      vertex -11.7808 -21.7808 0
      vertex -12.2025 -21.499 0
    endloop
  endfacet
  facet normal 0 0 -1
    outer loop
      vertex -16.299 14.2025 0
      vertex 12.2025 -21.499 0
      vertex -12.2025 -21.499 0
    endloop
  endfacet
  facet normal 0 0 -1
    outer loop
      vertex 16.299 14.2025 0
      vertex -16.299 14.2025 0
      vertex 16.2 14.7 0
    endloop
  endfacet
  facet normal 0 0 -1
    outer loop
      vertex 16.2 14.7 0
      vertex -16.2 14.7 0
      vertex 16.299 15.1975 0
    endloop
  endfacet
  facet normal 0 0 -1
    outer loop
      vertex -16.299 14.2025 0
      vertex -12.2025 -21.499 0
      vertex -12.7 -21.4 0
    endloop
  endfacet
  facet normal 0 0 -1
    outer loop
      vertex -16.299 14.2025 0
      vertex -12.7 -21.4 0
      vertex -13.1975 -21.499 0
    endloop
  endfacet
  facet normal 0 0 -1
    outer loop
      vertex -16.299 14.2025 0
      vertex -13.1975 -21.499 0
      vertex -13.6192 -21.7808 0
    endloop
  endfacet
  facet normal 0 0 -1
    outer loop
      vertex -27 -22 0
      vertex -13.901 -22.2025 0
      vertex -14 -22.7 0
    endloop
  endfacet
  facet normal 0 0 -1
    outer loop
      vertex -16.299 14.2025 0
      vertex -13.6192 -21.7808 0
      vertex -13.901 -22.2025 0
    endloop
  endfacet
  facet normal 0 0 -1
    outer loop
      vertex -16.299 15.1975 0
      vertex 16.299 15.1975 0
      vertex -16.2 14.7 0
    endloop
  endfacet
  facet normal 0 0 -1
    outer loop
      vertex -16.5808 15.6192 0
      vertex 16.299 15.1975 0
      vertex -16.299 15.1975 0
    endloop
  endfacet
  facet normal 0 0 -1
    outer loop
      vertex 16.5808 15.6192 0
      vertex -16.5808 15.6192 0
      vertex 27 32 0
    endloop
  endfacet
  facet normal 0 0 -1
    outer loop
      vertex -17.0025 15.901 0
      vertex 27 32 0
      vertex -16.5808 15.6192 0
    endloop
  endfacet
  facet normal 0 0 -1
    outer loop
      vertex -17.5 16 0
      vertex 27 32 0
      vertex -17.0025 15.901 0
    endloop
  endfacet
  facet normal 0 0 -1
    outer loop
      vertex -49 32 0
      vertex -17.5 16 0
      vertex -17.9975 15.901 0
    endloop
  endfacet
  facet normal -0 0 -1
    outer loop
      vertex -18.4192 13.7808 0
      vertex -49 -22 0
      vertex -18.701 14.2025 0
    endloop
  endfacet
  facet normal 0 0 -1
    outer loop
      vertex -49 32 0
      vertex -18.701 14.2025 0
      vertex -49 -22 0
    endloop
  endfacet
  facet normal 0 0 -1
    outer loop
      vertex -18.701 14.2025 0
      vertex -49 32 0
      vertex -18.8 14.7 0
    endloop
  endfacet
  facet normal 0 0 -1
    outer loop
      vertex -18.8 14.7 0
      vertex -49 32 0
      vertex -18.701 15.1975 0
    endloop
  endfacet
  facet normal 0 0 -1
    outer loop
      vertex -17.5 16 0
      vertex -49 32 0
      vertex 27 32 0
    endloop
  endfacet
  facet normal 0 0 -1
    outer loop
      vertex -18.4192 15.6192 0
      vertex -49 32 0
      vertex -17.9975 15.901 0
    endloop
  endfacet
  facet normal 0 0 -1
    outer loop
      vertex -18.701 15.1975 0
      vertex -49 32 0
      vertex -18.4192 15.6192 0
    endloop
  endfacet
  facet normal 0 -1 0
    outer loop
      vertex -27 -32 0
      vertex 27 -32 12
      vertex -27 -32 12
    endloop
  endfacet
  facet normal 0 -1 -0
    outer loop
      vertex 27 -32 12
      vertex -27 -32 0
      vertex 27 -32 0
    endloop
  endfacet
  facet normal 0 -1 0
    outer loop
      vertex -49 -22 30
      vertex -27 -22 12
      vertex -25 -22 30
    endloop
  endfacet
  facet normal 0 -1 0
    outer loop
      vertex -49 -22 0
      vertex -27 -22 12
      vertex -49 -22 30
    endloop
  endfacet
  facet normal 0 -1 -0
    outer loop
      vertex -27 -22 12
      vertex -49 -22 0
      vertex -27 -22 0
    endloop
  endfacet
  facet normal 0 -1 -0
    outer loop
      vertex -25 -22 30
      vertex -27 -22 12
      vertex -25 -22 12
    endloop
  endfacet
  facet normal 1 0 0
    outer loop
      vertex -25 -22 12
      vertex -25 -20 30
      vertex -25 -22 30
    endloop
  endfacet
  facet normal 1 0 0
    outer loop
      vertex -25 -20 30
      vertex -25 -22 12
      vertex -25 -20 2
    endloop
  endfacet
  facet normal 1 0 0
    outer loop
      vertex -25 -20 2
      vertex -25 -22 12
      vertex -25 -22 2
    endloop
  endfacet
  facet normal 1 -0 0
    outer loop
      vertex -25 30 30
      vertex -25 32 12
      vertex -25 32 30
    endloop
  endfacet
  facet normal 1 0 0
    outer loop
      vertex -25 32 12
      vertex -25 30 30
      vertex -25 30 12
    endloop
  endfacet
  facet normal 1 -0 0
    outer loop
      vertex -25 -30 12
      vertex -25 -22 2
      vertex -25 -22 12
    endloop
  endfacet
  facet normal 1 0 0
    outer loop
      vertex -25 -22 2
      vertex -25 -30 12
      vertex -25 -30 2
    endloop
  endfacet
  facet normal -1 0 0
    outer loop
      vertex 25 -30 2
      vertex 25 30 12
      vertex 25 30 2
    endloop
  endfacet
  facet normal -1 -0 0
    outer loop
      vertex 25 30 12
      vertex 25 -30 2
      vertex 25 -30 12
    endloop
  endfacet
  facet normal 0 0 1
    outer loop
      vertex 18.701 14.2025 2
      vertex 25 30 2
      vertex 18.8 14.7 2
    endloop
  endfacet
  facet normal 0 0 1
    outer loop
      vertex 25 30 2
      vertex 18.701 15.1975 2
      vertex 18.8 14.7 2
    endloop
  endfacet
  facet normal 0 0 1
    outer loop
      vertex 25 30 2
      vertex 18.4192 15.6192 2
      vertex 18.701 15.1975 2
    endloop
  endfacet
  facet normal 0 0 1
    outer loop
      vertex 25 30 2
      vertex 17.9975 15.901 2
      vertex 18.4192 15.6192 2
    endloop
  endfacet
  facet normal 0 0 1
    outer loop
      vertex 25 30 2
      vertex 17.5 16 2
      vertex 17.9975 15.901 2
    endloop
  endfacet
  facet normal 0 0 1
    outer loop
      vertex 25 30 2
      vertex 17.0025 15.901 2
      vertex 17.5 16 2
    endloop
  endfacet
  facet normal 0 0 1
    outer loop
      vertex 25 30 2
      vertex 16.5808 15.6192 2
      vertex 17.0025 15.901 2
    endloop
  endfacet
  facet normal 0 0 1
    outer loop
      vertex -16.5808 15.6192 2
      vertex 16.5808 15.6192 2
      vertex 25 30 2
    endloop
  endfacet
  facet normal 0 0 1
    outer loop
      vertex 25 -30 2
      vertex 13.901 -22.2025 2
      vertex 14 -22.7 2
    endloop
  endfacet
  facet normal 0 0 1
    outer loop
      vertex 16.299 14.2025 2
      vertex 13.6192 -21.7808 2
      vertex 13.901 -22.2025 2
    endloop
  endfacet
  facet normal 0 0 1
    outer loop
      vertex 16.299 14.2025 2
      vertex 13.1975 -21.499 2
      vertex 13.6192 -21.7808 2
    endloop
  endfacet
  facet normal 0 0 1
    outer loop
      vertex 16.299 14.2025 2
      vertex 12.7 -21.4 2
      vertex 13.1975 -21.499 2
    endloop
  endfacet
  facet normal 0 0 1
    outer loop
      vertex 16.299 14.2025 2
      vertex 12.2025 -21.499 2
      vertex 12.7 -21.4 2
    endloop
  endfacet
  facet normal 0 0 1
    outer loop
      vertex 16.299 14.2025 2
      vertex -16.5808 13.7808 2
      vertex 12.2025 -21.499 2
    endloop
  endfacet
  facet normal 0 -0 1
    outer loop
      vertex -12.2025 -21.499 2
      vertex 12.2025 -21.499 2
      vertex -16.5808 13.7808 2
    endloop
  endfacet
  facet normal 0 -0 1
    outer loop
      vertex -11.7808 -21.7808 2
      vertex 11.7808 -21.7808 2
      vertex -12.2025 -21.499 2
    endloop
  endfacet
  facet normal 0 0 1
    outer loop
      vertex 11.7808 -21.7808 2
      vertex -11.7808 -21.7808 2
      vertex 11.499 -22.2025 2
    endloop
  endfacet
  facet normal 0 0 1
    outer loop
      vertex -16.2 14.7 2
      vertex 16.2 14.7 2
      vertex 16.299 15.1975 2
    endloop
  endfacet
  facet normal 0 0 1
    outer loop
      vertex 16.5808 15.6192 2
      vertex -16.5808 15.6192 2
      vertex 16.299 15.1975 2
    endloop
  endfacet
  facet normal 0 0 1
    outer loop
      vertex 11.4 -22.7 2
      vertex -11.499 -22.2025 2
      vertex -11.4 -22.7 2
    endloop
  endfacet
  facet normal 0 0 1
    outer loop
      vertex 11.499 -22.2025 2
      vertex -11.499 -22.2025 2
      vertex 11.4 -22.7 2
    endloop
  endfacet
  facet normal 0 0 1
    outer loop
      vertex 16.299 14.2025 2
      vertex -16.299 14.2025 2
      vertex -16.5808 13.7808 2
    endloop
  endfacet
  facet normal 0 0 1
    outer loop
      vertex 12.2025 -21.499 2
      vertex -12.2025 -21.499 2
      vertex 11.7808 -21.7808 2
    endloop
  endfacet
  facet normal 0 -0 1
    outer loop
      vertex -11.499 -22.2025 2
      vertex 11.499 -22.2025 2
      vertex -11.7808 -21.7808 2
    endloop
  endfacet
  facet normal -0 0 1
    outer loop
      vertex -17.0025 13.499 2
      vertex -12.2025 -21.499 2
      vertex -16.5808 13.7808 2
    endloop
  endfacet
  facet normal -0 0 1
    outer loop
      vertex -17.5 13.4 2
      vertex -12.7 -21.4 2
      vertex -17.0025 13.499 2
    endloop
  endfacet
  facet normal 0 0 1
    outer loop
      vertex -12.2025 -21.499 2
      vertex -17.0025 13.499 2
      vertex -12.7 -21.4 2
    endloop
  endfacet
  facet normal 0 0 1
    outer loop
      vertex 16.2 14.7 2
      vertex -16.2 14.7 2
      vertex -16.299 14.2025 2
    endloop
  endfacet
  facet normal 0 0 1
    outer loop
      vertex 16.299 15.1975 2
      vertex -16.299 15.1975 2
      vertex -16.2 14.7 2
    endloop
  endfacet
  facet normal 0 0 1
    outer loop
      vertex 16.299 15.1975 2
      vertex -16.5808 15.6192 2
      vertex -16.299 15.1975 2
    endloop
  endfacet
  facet normal 0 0 1
    outer loop
      vertex 25 30 2
      vertex -17.0025 15.901 2
      vertex -16.5808 15.6192 2
    endloop
  endfacet
  facet normal 0 0 1
    outer loop
      vertex 25 30 2
      vertex -17.5 16 2
      vertex -17.0025 15.901 2
    endloop
  endfacet
  facet normal -0 0 1
    outer loop
      vertex -46.99 30 2
      vertex -17.5 16 2
      vertex 25 30 2
    endloop
  endfacet
  facet normal 0 0 1
    outer loop
      vertex -17.5 16 2
      vertex -46.99 30 2
      vertex -17.9975 15.901 2
    endloop
  endfacet
  facet normal 0 0 1
    outer loop
      vertex -46.99 30 2
      vertex -18.4192 15.6192 2
      vertex -17.9975 15.901 2
    endloop
  endfacet
  facet normal 0 0 1
    outer loop
      vertex -46.99 30 2
      vertex -18.701 15.1975 2
      vertex -18.4192 15.6192 2
    endloop
  endfacet
  facet normal 0 0 1
    outer loop
      vertex -46.99 30 2
      vertex -18.8 14.7 2
      vertex -18.701 15.1975 2
    endloop
  endfacet
  facet normal 0 0 1
    outer loop
      vertex -46.99 -20 2
      vertex -18.701 14.2025 2
      vertex -46.99 30 2
    endloop
  endfacet
  facet normal 0 0 1
    outer loop
      vertex -18.701 14.2025 2
      vertex -46.99 -20 2
      vertex -25 -20 2
    endloop
  endfacet
  facet normal 0 0 1
    outer loop
      vertex 25 30 2
      vertex 18.701 14.2025 2
      vertex 25 -30 2
    endloop
  endfacet
  facet normal -0 0 1
    outer loop
      vertex 18.4192 13.7808 2
      vertex 25 -30 2
      vertex 18.701 14.2025 2
    endloop
  endfacet
  facet normal 0 0 1
    outer loop
      vertex 13.901 -22.2025 2
      vertex 18.4192 13.7808 2
      vertex 17.9975 13.499 2
    endloop
  endfacet
  facet normal 0 0 1
    outer loop
      vertex 13.901 -22.2025 2
      vertex 17.9975 13.499 2
      vertex 17.5 13.4 2
    endloop
  endfacet
  facet normal 0 0 1
    outer loop
      vertex 13.901 -22.2025 2
      vertex 17.5 13.4 2
      vertex 17.0025 13.499 2
    endloop
  endfacet
  facet normal 0 0 1
    outer loop
      vertex 13.901 -22.2025 2
      vertex 17.0025 13.499 2
      vertex 16.5808 13.7808 2
    endloop
  endfacet
  facet normal 0 0 1
    outer loop
      vertex 13.901 -22.2025 2
      vertex 16.5808 13.7808 2
      vertex 16.299 14.2025 2
    endloop
  endfacet
  facet normal 0 0 1
    outer loop
      vertex -16.299 14.2025 2
      vertex 16.299 14.2025 2
      vertex 16.2 14.7 2
    endloop
  endfacet
  facet normal -0 0 1
    outer loop
      vertex 13.901 -22.2025 2
      vertex 25 -30 2
      vertex 18.4192 13.7808 2
    endloop
  endfacet
  facet normal -0 0 1
    outer loop
      vertex 13.901 -23.1975 2
      vertex 25 -30 2
      vertex 14 -22.7 2
    endloop
  endfacet
  facet normal -0 0 1
    outer loop
      vertex 13.6192 -23.6192 2
      vertex 25 -30 2
      vertex 13.901 -23.1975 2
    endloop
  endfacet
  facet normal -0 0 1
    outer loop
      vertex 13.1975 -23.901 2
      vertex 25 -30 2
      vertex 13.6192 -23.6192 2
    endloop
  endfacet
  facet normal -0 0 1
    outer loop
      vertex 12.7 -24 2
      vertex 25 -30 2
      vertex 13.1975 -23.901 2
    endloop
  endfacet
  facet normal 0 0 1
    outer loop
      vertex 12.2025 -23.901 2
      vertex 25 -30 2
      vertex 12.7 -24 2
    endloop
  endfacet
  facet normal -0 0 1
    outer loop
      vertex -11.4 -22.7 2
      vertex 11.499 -23.1975 2
      vertex 11.4 -22.7 2
    endloop
  endfacet
  facet normal 0 0 1
    outer loop
      vertex -11.499 -23.1975 2
      vertex 11.499 -23.1975 2
      vertex -11.4 -22.7 2
    endloop
  endfacet
  facet normal 0 0 1
    outer loop
      vertex 11.499 -23.1975 2
      vertex -11.499 -23.1975 2
      vertex 11.7808 -23.6192 2
    endloop
  endfacet
  facet normal 0 0 1
    outer loop
      vertex -11.7808 -23.6192 2
      vertex 11.7808 -23.6192 2
      vertex -11.499 -23.1975 2
    endloop
  endfacet
  facet normal 0 0 1
    outer loop
      vertex 11.7808 -23.6192 2
      vertex -11.7808 -23.6192 2
      vertex 12.2025 -23.901 2
    endloop
  endfacet
  facet normal 0 0 1
    outer loop
      vertex -12.2025 -23.901 2
      vertex 12.2025 -23.901 2
      vertex -11.7808 -23.6192 2
    endloop
  endfacet
  facet normal 0 0 1
    outer loop
      vertex 12.2025 -23.901 2
      vertex -12.2025 -23.901 2
      vertex 25 -30 2
    endloop
  endfacet
  facet normal 0 0 1
    outer loop
      vertex -25 -30 2
      vertex -12.2025 -23.901 2
      vertex -12.7 -24 2
    endloop
  endfacet
  facet normal 0 0 1
    outer loop
      vertex -12.7 -21.4 2
      vertex -17.5 13.4 2
      vertex -13.1975 -21.499 2
    endloop
  endfacet
  facet normal -0 0 1
    outer loop
      vertex -25 -20 2
      vertex -13.1975 -21.499 2
      vertex -17.5 13.4 2
    endloop
  endfacet
  facet normal 0 0 1
    outer loop
      vertex -13.1975 -21.499 2
      vertex -25 -20 2
      vertex -13.6192 -21.7808 2
    endloop
  endfacet
  facet normal 0 0 1
    outer loop
      vertex -13.6192 -21.7808 2
      vertex -25 -20 2
      vertex -13.901 -22.2025 2
    endloop
  endfacet
  facet normal 0 0 1
    outer loop
      vertex -25 -20 2
      vertex -17.5 13.4 2
      vertex -17.9975 13.499 2
    endloop
  endfacet
  facet normal 0 0 1
    outer loop
      vertex -25 -20 2
      vertex -17.9975 13.499 2
      vertex -18.4192 13.7808 2
    endloop
  endfacet
  facet normal 0 0 1
    outer loop
      vertex -25 -20 2
      vertex -18.4192 13.7808 2
      vertex -18.701 14.2025 2
    endloop
  endfacet
  facet normal 0 0 1
    outer loop
      vertex -46.99 30 2
      vertex -18.701 14.2025 2
      vertex -18.8 14.7 2
    endloop
  endfacet
  facet normal -0 0 1
    outer loop
      vertex -25 -22 2
      vertex -13.901 -22.2025 2
      vertex -25 -20 2
    endloop
  endfacet
  facet normal 0 0 1
    outer loop
      vertex -13.901 -22.2025 2
      vertex -25 -22 2
      vertex -14 -22.7 2
    endloop
  endfacet
  facet normal 0 0 1
    outer loop
      vertex -14 -22.7 2
      vertex -25 -22 2
      vertex -13.901 -23.1975 2
    endloop
  endfacet
  facet normal 0 0 1
    outer loop
      vertex -25 -30 2
      vertex -13.901 -23.1975 2
      vertex -25 -22 2
    endloop
  endfacet
  facet normal 0 0 1
    outer loop
      vertex -13.901 -23.1975 2
      vertex -25 -30 2
      vertex -13.6192 -23.6192 2
    endloop
  endfacet
  facet normal 0 0 1
    outer loop
      vertex -13.6192 -23.6192 2
      vertex -25 -30 2
      vertex -13.1975 -23.901 2
    endloop
  endfacet
  facet normal 0 0 1
    outer loop
      vertex -12.2025 -23.901 2
      vertex -25 -30 2
      vertex 25 -30 2
    endloop
  endfacet
  facet normal 0 0 1
    outer loop
      vertex -13.1975 -23.901 2
      vertex -25 -30 2
      vertex -12.7 -24 2
    endloop
  endfacet
  facet normal 0 1 -0
    outer loop
      vertex 25 -30 2
      vertex -25 -30 12
      vertex 25 -30 12
    endloop
  endfacet
  facet normal 0 1 0
    outer loop
      vertex -25 -30 12
      vertex 25 -30 2
      vertex -25 -30 2
    endloop
  endfacet
  facet normal 0 -1 0
    outer loop
      vertex -46.99 30 30
      vertex -40.49 30 21.75
      vertex -25 30 30
    endloop
  endfacet
  facet normal 0 -1 0
    outer loop
      vertex -46.99 30 30
      vertex -40.49 30 18.25
      vertex -40.49 30 21.75
    endloop
  endfacet
  facet normal 0 -1 0
    outer loop
      vertex -40.49 30 18.25
      vertex -25 30 12
      vertex -31.49 30 18.25
    endloop
  endfacet
  facet normal 0 -1 0
    outer loop
      vertex -46.99 30 2
      vertex -40.49 30 18.25
      vertex -46.99 30 30
    endloop
  endfacet
  facet normal 0 -1 0
    outer loop
      vertex -46.99 30 2
      vertex -25 30 12
      vertex -40.49 30 18.25
    endloop
  endfacet
  facet normal 0 -1 0
    outer loop
      vertex 25 30 2
      vertex -25 30 12
      vertex -46.99 30 2
    endloop
  endfacet
  facet normal 0 -1 0
    outer loop
      vertex -25 30 12
      vertex 25 30 2
      vertex 25 30 12
    endloop
  endfacet
  facet normal 0 -1 0
    outer loop
      vertex -31.49 30 21.75
      vertex -25 30 30
      vertex -40.49 30 21.75
    endloop
  endfacet
  facet normal 0 -1 0
    outer loop
      vertex -25 30 12
      vertex -31.49 30 21.75
      vertex -31.49 30 18.25
    endloop
  endfacet
  facet normal 0 -1 0
    outer loop
      vertex -31.49 30 21.75
      vertex -25 30 12
      vertex -25 30 30
    endloop
  endfacet
  facet normal 1 -0 0
    outer loop
      vertex -46.99 -20 30
      vertex -46.99 30 2
      vertex -46.99 30 30
    endloop
  endfacet
  facet normal 1 0 0
    outer loop
      vertex -46.99 30 2
      vertex -46.99 -20 30
      vertex -46.99 -20 2
    endloop
  endfacet
  facet normal 0 1 -0
    outer loop
      vertex -25 -20 2
      vertex -46.99 -20 30
      vertex -25 -20 30
    endloop
  endfacet
  facet normal 0 1 0
    outer loop
      vertex -46.99 -20 30
      vertex -25 -20 2
      vertex -46.99 -20 2
    endloop
  endfacet
  facet normal -1 0 0
    outer loop
      vertex -49 -22 0
      vertex -49 32 30
      vertex -49 32 0
    endloop
  endfacet
  facet normal -1 -0 0
    outer loop
      vertex -49 32 30
      vertex -49 -22 0
      vertex -49 -22 30
    endloop
  endfacet
  facet normal 0 0 1
    outer loop
      vertex -25 32 30
      vertex -46.99 30 30
      vertex -25 30 30
    endloop
  endfacet
  facet normal 0 0 1
    outer loop
      vertex -46.99 30 30
      vertex -49 32 30
      vertex -46.99 -20 30
    endloop
  endfacet
  facet normal -0 0 1
    outer loop
      vertex -49 32 30
      vertex -46.99 30 30
      vertex -25 32 30
    endloop
  endfacet
  facet normal -0 0 1
    outer loop
      vertex -46.99 -20 30
      vertex -25 -22 30
      vertex -25 -20 30
    endloop
  endfacet
  facet normal 0 0 1
    outer loop
      vertex -46.99 -20 30
      vertex -49 -22 30
      vertex -25 -22 30
    endloop
  endfacet
  facet normal 0 0 1
    outer loop
      vertex -49 -22 30
      vertex -46.99 -20 30
      vertex -49 32 30
    endloop
  endfacet
  facet normal 1 -0 0
    outer loop
      vertex -40.49 30 21.75
      vertex -40.49 32 18.25
      vertex -40.49 32 21.75
    endloop
  endfacet
  facet normal 1 0 0
    outer loop
      vertex -40.49 32 18.25
      vertex -40.49 30 21.75
      vertex -40.49 30 18.25
    endloop
  endfacet
  facet normal 0 0 -1
    outer loop
      vertex -40.49 30 21.75
      vertex -31.49 32 21.75
      vertex -31.49 30 21.75
    endloop
  endfacet
  facet normal -0 0 -1
    outer loop
      vertex -31.49 32 21.75
      vertex -40.49 30 21.75
      vertex -40.49 32 21.75
    endloop
  endfacet
  facet normal -1 0 0
    outer loop
      vertex -31.49 30 18.25
      vertex -31.49 32 21.75
      vertex -31.49 32 18.25
    endloop
  endfacet
  facet normal -1 -0 0
    outer loop
      vertex -31.49 32 21.75
      vertex -31.49 30 18.25
      vertex -31.49 30 21.75
    endloop
  endfacet
  facet normal -0 0 1
    outer loop
      vertex -40.49 32 18.25
      vertex -31.49 30 18.25
      vertex -31.49 32 18.25
    endloop
  endfacet
  facet normal 0 0 1
    outer loop
      vertex -31.49 30 18.25
      vertex -40.49 32 18.25
      vertex -40.49 30 18.25
    endloop
  endfacet
  facet normal -0.980785 -0.195091 0
    outer loop
      vertex 18.8 14.7 0
      vertex 18.701 15.1975 2
      vertex 18.701 15.1975 0
    endloop
  endfacet
  facet normal -0.980785 -0.195091 0
    outer loop
      vertex 18.701 15.1975 2
      vertex 18.8 14.7 0
      vertex 18.8 14.7 2
    endloop
  endfacet
  facet normal -0.195091 -0.980785 0
    outer loop
      vertex 17.5 16 0
      vertex 17.9975 15.901 2
      vertex 17.5 16 2
    endloop
  endfacet
  facet normal -0.195091 -0.980785 -0
    outer loop
      vertex 17.9975 15.901 2
      vertex 17.5 16 0
      vertex 17.9975 15.901 0
    endloop
  endfacet
  facet normal 0.980786 0.195087 0
    outer loop
      vertex 16.299 14.2025 2
      vertex 16.2 14.7 0
      vertex 16.2 14.7 2
    endloop
  endfacet
  facet normal 0.980786 0.195087 0
    outer loop
      vertex 16.2 14.7 0
      vertex 16.299 14.2025 2
      vertex 16.299 14.2025 0
    endloop
  endfacet
  facet normal -0.19509 0.980785 0
    outer loop
      vertex 17.9975 13.499 0
      vertex 17.5 13.4 2
      vertex 17.9975 13.499 2
    endloop
  endfacet
  facet normal -0.19509 0.980785 0
    outer loop
      vertex 17.5 13.4 2
      vertex 17.9975 13.499 0
      vertex 17.5 13.4 0
    endloop
  endfacet
  facet normal -0.55557 -0.83147 0
    outer loop
      vertex 17.9975 15.901 0
      vertex 18.4192 15.6192 2
      vertex 17.9975 15.901 2
    endloop
  endfacet
  facet normal -0.55557 -0.83147 -0
    outer loop
      vertex 18.4192 15.6192 2
      vertex 17.9975 15.901 0
      vertex 18.4192 15.6192 0
    endloop
  endfacet
  facet normal -0.831471 -0.555569 0
    outer loop
      vertex 18.701 15.1975 0
      vertex 18.4192 15.6192 2
      vertex 18.4192 15.6192 0
    endloop
  endfacet
  facet normal -0.831471 -0.555569 0
    outer loop
      vertex 18.4192 15.6192 2
      vertex 18.701 15.1975 0
      vertex 18.701 15.1975 2
    endloop
  endfacet
  facet normal 0.195091 -0.980785 0
    outer loop
      vertex 17.0025 15.901 0
      vertex 17.5 16 2
      vertex 17.0025 15.901 2
    endloop
  endfacet
  facet normal 0.195091 -0.980785 0
    outer loop
      vertex 17.5 16 2
      vertex 17.0025 15.901 0
      vertex 17.5 16 0
    endloop
  endfacet
  facet normal 0.555572 -0.831468 0
    outer loop
      vertex 16.5808 15.6192 0
      vertex 17.0025 15.901 2
      vertex 16.5808 15.6192 2
    endloop
  endfacet
  facet normal 0.555572 -0.831468 0
    outer loop
      vertex 17.0025 15.901 2
      vertex 16.5808 15.6192 0
      vertex 17.0025 15.901 0
    endloop
  endfacet
  facet normal 0.831469 -0.555571 0
    outer loop
      vertex 16.299 15.1975 2
      vertex 16.5808 15.6192 0
      vertex 16.5808 15.6192 2
    endloop
  endfacet
  facet normal 0.831469 -0.555571 0
    outer loop
      vertex 16.5808 15.6192 0
      vertex 16.299 15.1975 2
      vertex 16.299 15.1975 0
    endloop
  endfacet
  facet normal -0.980785 0.195091 0
    outer loop
      vertex 18.701 14.2025 0
      vertex 18.8 14.7 2
      vertex 18.8 14.7 0
    endloop
  endfacet
  facet normal -0.980785 0.195091 0
    outer loop
      vertex 18.8 14.7 2
      vertex 18.701 14.2025 0
      vertex 18.701 14.2025 2
    endloop
  endfacet
  facet normal -0.55557 0.83147 0
    outer loop
      vertex 18.4192 13.7808 0
      vertex 17.9975 13.499 2
      vertex 18.4192 13.7808 2
    endloop
  endfacet
  facet normal -0.55557 0.83147 0
    outer loop
      vertex 17.9975 13.499 2
      vertex 18.4192 13.7808 0
      vertex 17.9975 13.499 0
    endloop
  endfacet
  facet normal -0.831471 0.555569 0
    outer loop
      vertex 18.4192 13.7808 0
      vertex 18.701 14.2025 2
      vertex 18.701 14.2025 0
    endloop
  endfacet
  facet normal -0.831471 0.555569 0
    outer loop
      vertex 18.701 14.2025 2
      vertex 18.4192 13.7808 0
      vertex 18.4192 13.7808 2
    endloop
  endfacet
  facet normal 0.831469 0.555571 0
    outer loop
      vertex 16.5808 13.7808 2
      vertex 16.299 14.2025 0
      vertex 16.299 14.2025 2
    endloop
  endfacet
  facet normal 0.831469 0.555571 0
    outer loop
      vertex 16.299 14.2025 0
      vertex 16.5808 13.7808 2
      vertex 16.5808 13.7808 0
    endloop
  endfacet
  facet normal 0.195089 0.980786 -0
    outer loop
      vertex 17.5 13.4 0
      vertex 17.0025 13.499 2
      vertex 17.5 13.4 2
    endloop
  endfacet
  facet normal 0.195089 0.980786 0
    outer loop
      vertex 17.0025 13.499 2
      vertex 17.5 13.4 0
      vertex 17.0025 13.499 0
    endloop
  endfacet
  facet normal 0.555572 0.831468 -0
    outer loop
      vertex 17.0025 13.499 0
      vertex 16.5808 13.7808 2
      vertex 17.0025 13.499 2
    endloop
  endfacet
  facet normal 0.555572 0.831468 0
    outer loop
      vertex 16.5808 13.7808 2
      vertex 17.0025 13.499 0
      vertex 16.5808 13.7808 0
    endloop
  endfacet
  facet normal 0.980786 -0.195088 0
    outer loop
      vertex 16.2 14.7 2
      vertex 16.299 15.1975 0
      vertex 16.299 15.1975 2
    endloop
  endfacet
  facet normal 0.980786 -0.195088 0
    outer loop
      vertex 16.299 15.1975 0
      vertex 16.2 14.7 2
      vertex 16.2 14.7 0
    endloop
  endfacet
  facet normal 0.980785 -0.195091 0
    outer loop
      vertex -18.8 14.7 2
      vertex -18.701 15.1975 0
      vertex -18.701 15.1975 2
    endloop
  endfacet
  facet normal 0.980785 -0.195091 0
    outer loop
      vertex -18.701 15.1975 0
      vertex -18.8 14.7 2
      vertex -18.8 14.7 0
    endloop
  endfacet
  facet normal 0.980785 0.195091 0
    outer loop
      vertex -18.701 14.2025 2
      vertex -18.8 14.7 0
      vertex -18.8 14.7 2
    endloop
  endfacet
  facet normal 0.980785 0.195091 0
    outer loop
      vertex -18.8 14.7 0
      vertex -18.701 14.2025 2
      vertex -18.701 14.2025 0
    endloop
  endfacet
  facet normal -0.555572 -0.831468 0
    outer loop
      vertex -17.0025 15.901 0
      vertex -16.5808 15.6192 2
      vertex -17.0025 15.901 2
    endloop
  endfacet
  facet normal -0.555572 -0.831468 -0
    outer loop
      vertex -16.5808 15.6192 2
      vertex -17.0025 15.901 0
      vertex -16.5808 15.6192 0
    endloop
  endfacet
  facet normal 0.19509 0.980785 -0
    outer loop
      vertex -17.5 13.4 0
      vertex -17.9975 13.499 2
      vertex -17.5 13.4 2
    endloop
  endfacet
  facet normal 0.19509 0.980785 0
    outer loop
      vertex -17.9975 13.499 2
      vertex -17.5 13.4 0
      vertex -17.9975 13.499 0
    endloop
  endfacet
  facet normal -0.195091 -0.980785 0
    outer loop
      vertex -17.5 16 0
      vertex -17.0025 15.901 2
      vertex -17.5 16 2
    endloop
  endfacet
  facet normal -0.195091 -0.980785 -0
    outer loop
      vertex -17.0025 15.901 2
      vertex -17.5 16 0
      vertex -17.0025 15.901 0
    endloop
  endfacet
  facet normal -0.980786 0.195087 0
    outer loop
      vertex -16.299 14.2025 0
      vertex -16.2 14.7 2
      vertex -16.2 14.7 0
    endloop
  endfacet
  facet normal -0.980786 0.195087 0
    outer loop
      vertex -16.2 14.7 2
      vertex -16.299 14.2025 0
      vertex -16.299 14.2025 2
    endloop
  endfacet
  facet normal -0.555572 0.831468 0
    outer loop
      vertex -16.5808 13.7808 0
      vertex -17.0025 13.499 2
      vertex -16.5808 13.7808 2
    endloop
  endfacet
  facet normal -0.555572 0.831468 0
    outer loop
      vertex -17.0025 13.499 2
      vertex -16.5808 13.7808 0
      vertex -17.0025 13.499 0
    endloop
  endfacet
  facet normal -0.831469 0.555571 0
    outer loop
      vertex -16.5808 13.7808 0
      vertex -16.299 14.2025 2
      vertex -16.299 14.2025 0
    endloop
  endfacet
  facet normal -0.831469 0.555571 0
    outer loop
      vertex -16.299 14.2025 2
      vertex -16.5808 13.7808 0
      vertex -16.5808 13.7808 2
    endloop
  endfacet
  facet normal 0.55557 0.83147 -0
    outer loop
      vertex -17.9975 13.499 0
      vertex -18.4192 13.7808 2
      vertex -17.9975 13.499 2
    endloop
  endfacet
  facet normal 0.55557 0.83147 0
    outer loop
      vertex -18.4192 13.7808 2
      vertex -17.9975 13.499 0
      vertex -18.4192 13.7808 0
    endloop
  endfacet
  facet normal 0.831471 0.555569 0
    outer loop
      vertex -18.4192 13.7808 2
      vertex -18.701 14.2025 0
      vertex -18.701 14.2025 2
    endloop
  endfacet
  facet normal 0.831471 0.555569 0
    outer loop
      vertex -18.701 14.2025 0
      vertex -18.4192 13.7808 2
      vertex -18.4192 13.7808 0
    endloop
  endfacet
  facet normal 0.831471 -0.555569 0
    outer loop
      vertex -18.701 15.1975 2
      vertex -18.4192 15.6192 0
      vertex -18.4192 15.6192 2
    endloop
  endfacet
  facet normal 0.831471 -0.555569 0
    outer loop
      vertex -18.4192 15.6192 0
      vertex -18.701 15.1975 2
      vertex -18.701 15.1975 0
    endloop
  endfacet
  facet normal 0.195091 -0.980785 0
    outer loop
      vertex -17.9975 15.901 0
      vertex -17.5 16 2
      vertex -17.9975 15.901 2
    endloop
  endfacet
  facet normal 0.195091 -0.980785 0
    outer loop
      vertex -17.5 16 2
      vertex -17.9975 15.901 0
      vertex -17.5 16 0
    endloop
  endfacet
  facet normal -0.980786 -0.195088 0
    outer loop
      vertex -16.2 14.7 0
      vertex -16.299 15.1975 2
      vertex -16.299 15.1975 0
    endloop
  endfacet
  facet normal -0.980786 -0.195088 0
    outer loop
      vertex -16.299 15.1975 2
      vertex -16.2 14.7 0
      vertex -16.2 14.7 2
    endloop
  endfacet
  facet normal -0.831469 -0.555571 0
    outer loop
      vertex -16.299 15.1975 0
      vertex -16.5808 15.6192 2
      vertex -16.5808 15.6192 0
    endloop
  endfacet
  facet normal -0.831469 -0.555571 0
    outer loop
      vertex -16.5808 15.6192 2
      vertex -16.299 15.1975 0
      vertex -16.299 15.1975 2
    endloop
  endfacet
  facet normal -0.195089 0.980786 0
    outer loop
      vertex -17.0025 13.499 0
      vertex -17.5 13.4 2
      vertex -17.0025 13.499 2
    endloop
  endfacet
  facet normal -0.195089 0.980786 0
    outer loop
      vertex -17.5 13.4 2
      vertex -17.0025 13.499 0
      vertex -17.5 13.4 0
    endloop
  endfacet
  facet normal 0.55557 -0.83147 0
    outer loop
      vertex -18.4192 15.6192 0
      vertex -17.9975 15.901 2
      vertex -18.4192 15.6192 2
    endloop
  endfacet
  facet normal 0.55557 -0.83147 0
    outer loop
      vertex -17.9975 15.901 2
      vertex -18.4192 15.6192 0
      vertex -17.9975 15.901 0
    endloop
  endfacet
  facet normal -0.980785 -0.195091 0
    outer loop
      vertex 14 -22.7 0
      vertex 13.901 -22.2025 2
      vertex 13.901 -22.2025 0
    endloop
  endfacet
  facet normal -0.980785 -0.195091 0
    outer loop
      vertex 13.901 -22.2025 2
      vertex 14 -22.7 0
      vertex 14 -22.7 2
    endloop
  endfacet
  facet normal 0.83147 0.55557 0
    outer loop
      vertex 11.7808 -23.6192 2
      vertex 11.499 -23.1975 0
      vertex 11.499 -23.1975 2
    endloop
  endfacet
  facet normal 0.83147 0.55557 0
    outer loop
      vertex 11.499 -23.1975 0
      vertex 11.7808 -23.6192 2
      vertex 11.7808 -23.6192 0
    endloop
  endfacet
  facet normal 0.195087 -0.980786 0
    outer loop
      vertex 12.2025 -21.499 0
      vertex 12.7 -21.4 2
      vertex 12.2025 -21.499 2
    endloop
  endfacet
  facet normal 0.195087 -0.980786 0
    outer loop
      vertex 12.7 -21.4 2
      vertex 12.2025 -21.499 0
      vertex 12.7 -21.4 0
    endloop
  endfacet
  facet normal 0.980785 0.19509 0
    outer loop
      vertex 11.499 -23.1975 2
      vertex 11.4 -22.7 0
      vertex 11.4 -22.7 2
    endloop
  endfacet
  facet normal 0.980785 0.19509 0
    outer loop
      vertex 11.4 -22.7 0
      vertex 11.499 -23.1975 2
      vertex 11.499 -23.1975 0
    endloop
  endfacet
  facet normal -0.555574 -0.831467 0
    outer loop
      vertex 13.1975 -21.499 0
      vertex 13.6192 -21.7808 2
      vertex 13.1975 -21.499 2
    endloop
  endfacet
  facet normal -0.555574 -0.831467 -0
    outer loop
      vertex 13.6192 -21.7808 2
      vertex 13.1975 -21.499 0
      vertex 13.6192 -21.7808 0
    endloop
  endfacet
  facet normal -0.831468 -0.555572 0
    outer loop
      vertex 13.901 -22.2025 0
      vertex 13.6192 -21.7808 2
      vertex 13.6192 -21.7808 0
    endloop
  endfacet
  facet normal -0.831468 -0.555572 0
    outer loop
      vertex 13.6192 -21.7808 2
      vertex 13.901 -22.2025 0
      vertex 13.901 -22.2025 2
    endloop
  endfacet
  facet normal 0.555574 -0.831467 0
    outer loop
      vertex 11.7808 -21.7808 0
      vertex 12.2025 -21.499 2
      vertex 11.7808 -21.7808 2
    endloop
  endfacet
  facet normal 0.555574 -0.831467 0
    outer loop
      vertex 12.2025 -21.499 2
      vertex 11.7808 -21.7808 0
      vertex 12.2025 -21.499 0
    endloop
  endfacet
  facet normal 0.831468 -0.555572 0
    outer loop
      vertex 11.499 -22.2025 2
      vertex 11.7808 -21.7808 0
      vertex 11.7808 -21.7808 2
    endloop
  endfacet
  facet normal 0.831468 -0.555572 0
    outer loop
      vertex 11.7808 -21.7808 0
      vertex 11.499 -22.2025 2
      vertex 11.499 -22.2025 0
    endloop
  endfacet
  facet normal -0.980785 0.195092 0
    outer loop
      vertex 13.901 -23.1975 0
      vertex 14 -22.7 2
      vertex 14 -22.7 0
    endloop
  endfacet
  facet normal -0.980785 0.195092 0
    outer loop
      vertex 14 -22.7 2
      vertex 13.901 -23.1975 0
      vertex 13.901 -23.1975 2
    endloop
  endfacet
  facet normal -0.195088 -0.980786 0
    outer loop
      vertex 12.7 -21.4 0
      vertex 13.1975 -21.499 2
      vertex 12.7 -21.4 2
    endloop
  endfacet
  facet normal -0.195088 -0.980786 -0
    outer loop
      vertex 13.1975 -21.499 2
      vertex 12.7 -21.4 0
      vertex 13.1975 -21.499 0
    endloop
  endfacet
  facet normal 0.980786 -0.195089 0
    outer loop
      vertex 11.4 -22.7 2
      vertex 11.499 -22.2025 0
      vertex 11.499 -22.2025 2
    endloop
  endfacet
  facet normal 0.980786 -0.195089 0
    outer loop
      vertex 11.499 -22.2025 0
      vertex 11.4 -22.7 2
      vertex 11.4 -22.7 0
    endloop
  endfacet
  facet normal -0.555571 0.831469 0
    outer loop
      vertex 13.6192 -23.6192 0
      vertex 13.1975 -23.901 2
      vertex 13.6192 -23.6192 2
    endloop
  endfacet
  facet normal -0.555571 0.831469 0
    outer loop
      vertex 13.1975 -23.901 2
      vertex 13.6192 -23.6192 0
      vertex 13.1975 -23.901 0
    endloop
  endfacet
  facet normal -0.83147 0.55557 0
    outer loop
      vertex 13.6192 -23.6192 0
      vertex 13.901 -23.1975 2
      vertex 13.901 -23.1975 0
    endloop
  endfacet
  facet normal -0.83147 0.55557 0
    outer loop
      vertex 13.901 -23.1975 2
      vertex 13.6192 -23.6192 0
      vertex 13.6192 -23.6192 2
    endloop
  endfacet
  facet normal 0.195091 0.980785 -0
    outer loop
      vertex 12.7 -24 0
      vertex 12.2025 -23.901 2
      vertex 12.7 -24 2
    endloop
  endfacet
  facet normal 0.195091 0.980785 0
    outer loop
      vertex 12.2025 -23.901 2
      vertex 12.7 -24 0
      vertex 12.2025 -23.901 0
    endloop
  endfacet
  facet normal 0.555571 0.831469 -0
    outer loop
      vertex 12.2025 -23.901 0
      vertex 11.7808 -23.6192 2
      vertex 12.2025 -23.901 2
    endloop
  endfacet
  facet normal 0.555571 0.831469 0
    outer loop
      vertex 11.7808 -23.6192 2
      vertex 12.2025 -23.901 0
      vertex 11.7808 -23.6192 0
    endloop
  endfacet
  facet normal -0.195091 0.980785 0
    outer loop
      vertex 13.1975 -23.901 0
      vertex 12.7 -24 2
      vertex 13.1975 -23.901 2
    endloop
  endfacet
  facet normal -0.195091 0.980785 0
    outer loop
      vertex 12.7 -24 2
      vertex 13.1975 -23.901 0
      vertex 12.7 -24 0
    endloop
  endfacet
  facet normal 0.980785 -0.195091 0
    outer loop
      vertex -14 -22.7 2
      vertex -13.901 -22.2025 0
      vertex -13.901 -22.2025 2
    endloop
  endfacet
  facet normal 0.980785 -0.195091 0
    outer loop
      vertex -13.901 -22.2025 0
      vertex -14 -22.7 2
      vertex -14 -22.7 0
    endloop
  endfacet
  facet normal -0.980785 0.19509 0
    outer loop
      vertex -11.499 -23.1975 0
      vertex -11.4 -22.7 2
      vertex -11.4 -22.7 0
    endloop
  endfacet
  facet normal -0.980785 0.19509 0
    outer loop
      vertex -11.4 -22.7 2
      vertex -11.499 -23.1975 0
      vertex -11.499 -23.1975 2
    endloop
  endfacet
  facet normal 0.195091 0.980785 -0
    outer loop
      vertex -12.7 -24 0
      vertex -13.1975 -23.901 2
      vertex -12.7 -24 2
    endloop
  endfacet
  facet normal 0.195091 0.980785 0
    outer loop
      vertex -13.1975 -23.901 2
      vertex -12.7 -24 0
      vertex -13.1975 -23.901 0
    endloop
  endfacet
  facet normal 0.980785 0.195092 0
    outer loop
      vertex -13.901 -23.1975 2
      vertex -14 -22.7 0
      vertex -14 -22.7 2
    endloop
  endfacet
  facet normal 0.980785 0.195092 0
    outer loop
      vertex -14 -22.7 0
      vertex -13.901 -23.1975 2
      vertex -13.901 -23.1975 0
    endloop
  endfacet
  facet normal -0.555574 -0.831467 0
    outer loop
      vertex -12.2025 -21.499 0
      vertex -11.7808 -21.7808 2
      vertex -12.2025 -21.499 2
    endloop
  endfacet
  facet normal -0.555574 -0.831467 -0
    outer loop
      vertex -11.7808 -21.7808 2
      vertex -12.2025 -21.499 0
      vertex -11.7808 -21.7808 0
    endloop
  endfacet
  facet normal -0.555571 0.831469 0
    outer loop
      vertex -11.7808 -23.6192 0
      vertex -12.2025 -23.901 2
      vertex -11.7808 -23.6192 2
    endloop
  endfacet
  facet normal -0.555571 0.831469 0
    outer loop
      vertex -12.2025 -23.901 2
      vertex -11.7808 -23.6192 0
      vertex -12.2025 -23.901 0
    endloop
  endfacet
  facet normal 0.555571 0.831469 -0
    outer loop
      vertex -13.1975 -23.901 0
      vertex -13.6192 -23.6192 2
      vertex -13.1975 -23.901 2
    endloop
  endfacet
  facet normal 0.555571 0.831469 0
    outer loop
      vertex -13.6192 -23.6192 2
      vertex -13.1975 -23.901 0
      vertex -13.6192 -23.6192 0
    endloop
  endfacet
  facet normal 0.831468 -0.555572 0
    outer loop
      vertex -13.901 -22.2025 2
      vertex -13.6192 -21.7808 0
      vertex -13.6192 -21.7808 2
    endloop
  endfacet
  facet normal 0.831468 -0.555572 0
    outer loop
      vertex -13.6192 -21.7808 0
      vertex -13.901 -22.2025 2
      vertex -13.901 -22.2025 0
    endloop
  endfacet
  facet normal -0.831468 -0.555572 0
    outer loop
      vertex -11.499 -22.2025 0
      vertex -11.7808 -21.7808 2
      vertex -11.7808 -21.7808 0
    endloop
  endfacet
  facet normal -0.831468 -0.555572 0
    outer loop
      vertex -11.7808 -21.7808 2
      vertex -11.499 -22.2025 0
      vertex -11.499 -22.2025 2
    endloop
  endfacet
  facet normal 0.195088 -0.980786 0
    outer loop
      vertex -13.1975 -21.499 0
      vertex -12.7 -21.4 2
      vertex -13.1975 -21.499 2
    endloop
  endfacet
  facet normal 0.195088 -0.980786 0
    outer loop
      vertex -12.7 -21.4 2
      vertex -13.1975 -21.499 0
      vertex -12.7 -21.4 0
    endloop
  endfacet
  facet normal -0.195087 -0.980786 0
    outer loop
      vertex -12.7 -21.4 0
      vertex -12.2025 -21.499 2
      vertex -12.7 -21.4 2
    endloop
  endfacet
  facet normal -0.195087 -0.980786 -0
    outer loop
      vertex -12.2025 -21.499 2
      vertex -12.7 -21.4 0
      vertex -12.2025 -21.499 0
    endloop
  endfacet
  facet normal -0.83147 0.55557 0
    outer loop
      vertex -11.7808 -23.6192 0
      vertex -11.499 -23.1975 2
      vertex -11.499 -23.1975 0
    endloop
  endfacet
  facet normal -0.83147 0.55557 0
    outer loop
      vertex -11.499 -23.1975 2
      vertex -11.7808 -23.6192 0
      vertex -11.7808 -23.6192 2
    endloop
  endfacet
  facet normal -0.980786 -0.195089 0
    outer loop
      vertex -11.4 -22.7 0
      vertex -11.499 -22.2025 2
      vertex -11.499 -22.2025 0
    endloop
  endfacet
  facet normal -0.980786 -0.195089 0
    outer loop
      vertex -11.499 -22.2025 2
      vertex -11.4 -22.7 0
      vertex -11.4 -22.7 2
    endloop
  endfacet
  facet normal -0.195091 0.980785 0
    outer loop
      vertex -12.2025 -23.901 0
      vertex -12.7 -24 2
      vertex -12.2025 -23.901 2
    endloop
  endfacet
  facet normal -0.195091 0.980785 0
    outer loop
      vertex -12.7 -24 2
      vertex -12.2025 -23.901 0
      vertex -12.7 -24 0
    endloop
  endfacet
  facet normal 0.83147 0.55557 0
    outer loop
      vertex -13.6192 -23.6192 2
      vertex -13.901 -23.1975 0
      vertex -13.901 -23.1975 2
    endloop
  endfacet
  facet normal 0.83147 0.55557 0
    outer loop
      vertex -13.901 -23.1975 0
      vertex -13.6192 -23.6192 2
      vertex -13.6192 -23.6192 0
    endloop
  endfacet
  facet normal 0.555574 -0.831467 0
    outer loop
      vertex -13.6192 -21.7808 0
      vertex -13.1975 -21.499 2
      vertex -13.6192 -21.7808 2
    endloop
  endfacet
  facet normal 0.555574 -0.831467 0
    outer loop
      vertex -13.1975 -21.499 2
      vertex -13.6192 -21.7808 0
      vertex -13.1975 -21.499 0
    endloop
  endfacet
endsolid OpenSCAD_Model
