solid OpenSCAD_Model
  facet normal -0.980785 -0.195091 0
    outer loop
      vertex 18.8 14.7 12.1
      vertex 18.701 15.1975 14.1
      vertex 18.701 15.1975 12.1
    endloop
  endfacet
  facet normal -0.980785 -0.195091 0
    outer loop
      vertex 18.701 15.1975 14.1
      vertex 18.8 14.7 12.1
      vertex 18.8 14.7 14.1
    endloop
  endfacet
  facet normal -0.195091 -0.980785 0
    outer loop
      vertex 17.5 16 12.1
      vertex 17.9975 15.901 14.1
      vertex 17.5 16 14.1
    endloop
  endfacet
  facet normal -0.195091 -0.980785 -0
    outer loop
      vertex 17.9975 15.901 14.1
      vertex 17.5 16 12.1
      vertex 17.9975 15.901 12.1
    endloop
  endfacet
  facet normal 0.980786 0.195087 0
    outer loop
      vertex 16.299 14.2025 14.1
      vertex 16.2 14.7 12.1
      vertex 16.2 14.7 14.1
    endloop
  endfacet
  facet normal 0.980786 0.195087 0
    outer loop
      vertex 16.2 14.7 12.1
      vertex 16.299 14.2025 14.1
      vertex 16.299 14.2025 12.1
    endloop
  endfacet
  facet normal -0.19509 0.980785 0
    outer loop
      vertex 17.9975 13.499 12.1
      vertex 17.5 13.4 14.1
      vertex 17.9975 13.499 14.1
    endloop
  endfacet
  facet normal -0.19509 0.980785 0
    outer loop
      vertex 17.5 13.4 14.1
      vertex 17.9975 13.499 12.1
      vertex 17.5 13.4 12.1
    endloop
  endfacet
  facet normal -0.55557 -0.83147 0
    outer loop
      vertex 17.9975 15.901 12.1
      vertex 18.4192 15.6192 14.1
      vertex 17.9975 15.901 14.1
    endloop
  endfacet
  facet normal -0.55557 -0.83147 -0
    outer loop
      vertex 18.4192 15.6192 14.1
      vertex 17.9975 15.901 12.1
      vertex 18.4192 15.6192 12.1
    endloop
  endfacet
  facet normal -0.831471 -0.555569 0
    outer loop
      vertex 18.701 15.1975 12.1
      vertex 18.4192 15.6192 14.1
      vertex 18.4192 15.6192 12.1
    endloop
  endfacet
  facet normal -0.831471 -0.555569 0
    outer loop
      vertex 18.4192 15.6192 14.1
      vertex 18.701 15.1975 12.1
      vertex 18.701 15.1975 14.1
    endloop
  endfacet
  facet normal 0.195091 -0.980785 0
    outer loop
      vertex 17.0025 15.901 12.1
      vertex 17.5 16 14.1
      vertex 17.0025 15.901 14.1
    endloop
  endfacet
  facet normal 0.195091 -0.980785 0
    outer loop
      vertex 17.5 16 14.1
      vertex 17.0025 15.901 12.1
      vertex 17.5 16 12.1
    endloop
  endfacet
  facet normal 0.555572 -0.831468 0
    outer loop
      vertex 16.5808 15.6192 12.1
      vertex 17.0025 15.901 14.1
      vertex 16.5808 15.6192 14.1
    endloop
  endfacet
  facet normal 0.555572 -0.831468 0
    outer loop
      vertex 17.0025 15.901 14.1
      vertex 16.5808 15.6192 12.1
      vertex 17.0025 15.901 12.1
    endloop
  endfacet
  facet normal 0.831469 -0.555571 0
    outer loop
      vertex 16.299 15.1975 14.1
      vertex 16.5808 15.6192 12.1
      vertex 16.5808 15.6192 14.1
    endloop
  endfacet
  facet normal 0.831469 -0.555571 0
    outer loop
      vertex 16.5808 15.6192 12.1
      vertex 16.299 15.1975 14.1
      vertex 16.299 15.1975 12.1
    endloop
  endfacet
  facet normal -0.980785 0.195091 0
    outer loop
      vertex 18.701 14.2025 12.1
      vertex 18.8 14.7 14.1
      vertex 18.8 14.7 12.1
    endloop
  endfacet
  facet normal -0.980785 0.195091 0
    outer loop
      vertex 18.8 14.7 14.1
      vertex 18.701 14.2025 12.1
      vertex 18.701 14.2025 14.1
    endloop
  endfacet
  facet normal -0.55557 0.83147 0
    outer loop
      vertex 18.4192 13.7808 12.1
      vertex 17.9975 13.499 14.1
      vertex 18.4192 13.7808 14.1
    endloop
  endfacet
  facet normal -0.55557 0.83147 0
    outer loop
      vertex 17.9975 13.499 14.1
      vertex 18.4192 13.7808 12.1
      vertex 17.9975 13.499 12.1
    endloop
  endfacet
  facet normal -0.831471 0.555569 0
    outer loop
      vertex 18.4192 13.7808 12.1
      vertex 18.701 14.2025 14.1
      vertex 18.701 14.2025 12.1
    endloop
  endfacet
  facet normal -0.831471 0.555569 0
    outer loop
      vertex 18.701 14.2025 14.1
      vertex 18.4192 13.7808 12.1
      vertex 18.4192 13.7808 14.1
    endloop
  endfacet
  facet normal 0.831469 0.555571 0
    outer loop
      vertex 16.5808 13.7808 14.1
      vertex 16.299 14.2025 12.1
      vertex 16.299 14.2025 14.1
    endloop
  endfacet
  facet normal 0.831469 0.555571 0
    outer loop
      vertex 16.299 14.2025 12.1
      vertex 16.5808 13.7808 14.1
      vertex 16.5808 13.7808 12.1
    endloop
  endfacet
  facet normal 0.195089 0.980786 -0
    outer loop
      vertex 17.5 13.4 12.1
      vertex 17.0025 13.499 14.1
      vertex 17.5 13.4 14.1
    endloop
  endfacet
  facet normal 0.195089 0.980786 0
    outer loop
      vertex 17.0025 13.499 14.1
      vertex 17.5 13.4 12.1
      vertex 17.0025 13.499 12.1
    endloop
  endfacet
  facet normal 0.555572 0.831468 -0
    outer loop
      vertex 17.0025 13.499 12.1
      vertex 16.5808 13.7808 14.1
      vertex 17.0025 13.499 14.1
    endloop
  endfacet
  facet normal 0.555572 0.831468 0
    outer loop
      vertex 16.5808 13.7808 14.1
      vertex 17.0025 13.499 12.1
      vertex 16.5808 13.7808 12.1
    endloop
  endfacet
  facet normal 0.980786 -0.195088 0
    outer loop
      vertex 16.2 14.7 14.1
      vertex 16.299 15.1975 12.1
      vertex 16.299 15.1975 14.1
    endloop
  endfacet
  facet normal 0.980786 -0.195088 0
    outer loop
      vertex 16.299 15.1975 12.1
      vertex 16.2 14.7 14.1
      vertex 16.2 14.7 12.1
    endloop
  endfacet
  facet normal 0.980785 -0.195091 0
    outer loop
      vertex -18.8 14.7 14.1
      vertex -18.701 15.1975 12.1
      vertex -18.701 15.1975 14.1
    endloop
  endfacet
  facet normal 0.980785 -0.195091 0
    outer loop
      vertex -18.701 15.1975 12.1
      vertex -18.8 14.7 14.1
      vertex -18.8 14.7 12.1
    endloop
  endfacet
  facet normal 0.980785 0.195091 0
    outer loop
      vertex -18.701 14.2025 14.1
      vertex -18.8 14.7 12.1
      vertex -18.8 14.7 14.1
    endloop
  endfacet
  facet normal 0.980785 0.195091 0
    outer loop
      vertex -18.8 14.7 12.1
      vertex -18.701 14.2025 14.1
      vertex -18.701 14.2025 12.1
    endloop
  endfacet
  facet normal -0.555572 -0.831468 0
    outer loop
      vertex -17.0025 15.901 12.1
      vertex -16.5808 15.6192 14.1
      vertex -17.0025 15.901 14.1
    endloop
  endfacet
  facet normal -0.555572 -0.831468 -0
    outer loop
      vertex -16.5808 15.6192 14.1
      vertex -17.0025 15.901 12.1
      vertex -16.5808 15.6192 12.1
    endloop
  endfacet
  facet normal 0.19509 0.980785 -0
    outer loop
      vertex -17.5 13.4 12.1
      vertex -17.9975 13.499 14.1
      vertex -17.5 13.4 14.1
    endloop
  endfacet
  facet normal 0.19509 0.980785 0
    outer loop
      vertex -17.9975 13.499 14.1
      vertex -17.5 13.4 12.1
      vertex -17.9975 13.499 12.1
    endloop
  endfacet
  facet normal -0.195091 -0.980785 0
    outer loop
      vertex -17.5 16 12.1
      vertex -17.0025 15.901 14.1
      vertex -17.5 16 14.1
    endloop
  endfacet
  facet normal -0.195091 -0.980785 -0
    outer loop
      vertex -17.0025 15.901 14.1
      vertex -17.5 16 12.1
      vertex -17.0025 15.901 12.1
    endloop
  endfacet
  facet normal -0.980786 0.195087 0
    outer loop
      vertex -16.299 14.2025 12.1
      vertex -16.2 14.7 14.1
      vertex -16.2 14.7 12.1
    endloop
  endfacet
  facet normal -0.980786 0.195087 0
    outer loop
      vertex -16.2 14.7 14.1
      vertex -16.299 14.2025 12.1
      vertex -16.299 14.2025 14.1
    endloop
  endfacet
  facet normal -0.555572 0.831468 0
    outer loop
      vertex -16.5808 13.7808 12.1
      vertex -17.0025 13.499 14.1
      vertex -16.5808 13.7808 14.1
    endloop
  endfacet
  facet normal -0.555572 0.831468 0
    outer loop
      vertex -17.0025 13.499 14.1
      vertex -16.5808 13.7808 12.1
      vertex -17.0025 13.499 12.1
    endloop
  endfacet
  facet normal -0.831469 0.555571 0
    outer loop
      vertex -16.5808 13.7808 12.1
      vertex -16.299 14.2025 14.1
      vertex -16.299 14.2025 12.1
    endloop
  endfacet
  facet normal -0.831469 0.555571 0
    outer loop
      vertex -16.299 14.2025 14.1
      vertex -16.5808 13.7808 12.1
      vertex -16.5808 13.7808 14.1
    endloop
  endfacet
  facet normal 0.55557 0.83147 -0
    outer loop
      vertex -17.9975 13.499 12.1
      vertex -18.4192 13.7808 14.1
      vertex -17.9975 13.499 14.1
    endloop
  endfacet
  facet normal 0.55557 0.83147 0
    outer loop
      vertex -18.4192 13.7808 14.1
      vertex -17.9975 13.499 12.1
      vertex -18.4192 13.7808 12.1
    endloop
  endfacet
  facet normal 0.831471 0.555569 0
    outer loop
      vertex -18.4192 13.7808 14.1
      vertex -18.701 14.2025 12.1
      vertex -18.701 14.2025 14.1
    endloop
  endfacet
  facet normal 0.831471 0.555569 0
    outer loop
      vertex -18.701 14.2025 12.1
      vertex -18.4192 13.7808 14.1
      vertex -18.4192 13.7808 12.1
    endloop
  endfacet
  facet normal 0.831471 -0.555569 0
    outer loop
      vertex -18.701 15.1975 14.1
      vertex -18.4192 15.6192 12.1
      vertex -18.4192 15.6192 14.1
    endloop
  endfacet
  facet normal 0.831471 -0.555569 0
    outer loop
      vertex -18.4192 15.6192 12.1
      vertex -18.701 15.1975 14.1
      vertex -18.701 15.1975 12.1
    endloop
  endfacet
  facet normal 0.195091 -0.980785 0
    outer loop
      vertex -17.9975 15.901 12.1
      vertex -17.5 16 14.1
      vertex -17.9975 15.901 14.1
    endloop
  endfacet
  facet normal 0.195091 -0.980785 0
    outer loop
      vertex -17.5 16 14.1
      vertex -17.9975 15.901 12.1
      vertex -17.5 16 12.1
    endloop
  endfacet
  facet normal -0.980786 -0.195088 0
    outer loop
      vertex -16.2 14.7 12.1
      vertex -16.299 15.1975 14.1
      vertex -16.299 15.1975 12.1
    endloop
  endfacet
  facet normal -0.980786 -0.195088 0
    outer loop
      vertex -16.299 15.1975 14.1
      vertex -16.2 14.7 12.1
      vertex -16.2 14.7 14.1
    endloop
  endfacet
  facet normal -0.831469 -0.555571 0
    outer loop
      vertex -16.299 15.1975 12.1
      vertex -16.5808 15.6192 14.1
      vertex -16.5808 15.6192 12.1
    endloop
  endfacet
  facet normal -0.831469 -0.555571 0
    outer loop
      vertex -16.5808 15.6192 14.1
      vertex -16.299 15.1975 12.1
      vertex -16.299 15.1975 14.1
    endloop
  endfacet
  facet normal -0.195089 0.980786 0
    outer loop
      vertex -17.0025 13.499 12.1
      vertex -17.5 13.4 14.1
      vertex -17.0025 13.499 14.1
    endloop
  endfacet
  facet normal -0.195089 0.980786 0
    outer loop
      vertex -17.5 13.4 14.1
      vertex -17.0025 13.499 12.1
      vertex -17.5 13.4 12.1
    endloop
  endfacet
  facet normal 0.55557 -0.83147 0
    outer loop
      vertex -18.4192 15.6192 12.1
      vertex -17.9975 15.901 14.1
      vertex -18.4192 15.6192 14.1
    endloop
  endfacet
  facet normal 0.55557 -0.83147 0
    outer loop
      vertex -17.9975 15.901 14.1
      vertex -18.4192 15.6192 12.1
      vertex -17.9975 15.901 12.1
    endloop
  endfacet
  facet normal -0.980785 -0.195091 0
    outer loop
      vertex 14 -22.7 12.1
      vertex 13.901 -22.2025 14.1
      vertex 13.901 -22.2025 12.1
    endloop
  endfacet
  facet normal -0.980785 -0.195091 0
    outer loop
      vertex 13.901 -22.2025 14.1
      vertex 14 -22.7 12.1
      vertex 14 -22.7 14.1
    endloop
  endfacet
  facet normal 0.83147 0.55557 0
    outer loop
      vertex 11.7808 -23.6192 14.1
      vertex 11.499 -23.1975 12.1
      vertex 11.499 -23.1975 14.1
    endloop
  endfacet
  facet normal 0.83147 0.55557 0
    outer loop
      vertex 11.499 -23.1975 12.1
      vertex 11.7808 -23.6192 14.1
      vertex 11.7808 -23.6192 12.1
    endloop
  endfacet
  facet normal 0.195087 -0.980786 0
    outer loop
      vertex 12.2025 -21.499 12.1
      vertex 12.7 -21.4 14.1
      vertex 12.2025 -21.499 14.1
    endloop
  endfacet
  facet normal 0.195087 -0.980786 0
    outer loop
      vertex 12.7 -21.4 14.1
      vertex 12.2025 -21.499 12.1
      vertex 12.7 -21.4 12.1
    endloop
  endfacet
  facet normal 0.980785 0.19509 0
    outer loop
      vertex 11.499 -23.1975 14.1
      vertex 11.4 -22.7 12.1
      vertex 11.4 -22.7 14.1
    endloop
  endfacet
  facet normal 0.980785 0.19509 0
    outer loop
      vertex 11.4 -22.7 12.1
      vertex 11.499 -23.1975 14.1
      vertex 11.499 -23.1975 12.1
    endloop
  endfacet
  facet normal -0.555574 -0.831467 0
    outer loop
      vertex 13.1975 -21.499 12.1
      vertex 13.6192 -21.7808 14.1
      vertex 13.1975 -21.499 14.1
    endloop
  endfacet
  facet normal -0.555574 -0.831467 -0
    outer loop
      vertex 13.6192 -21.7808 14.1
      vertex 13.1975 -21.499 12.1
      vertex 13.6192 -21.7808 12.1
    endloop
  endfacet
  facet normal -0.831468 -0.555572 0
    outer loop
      vertex 13.901 -22.2025 12.1
      vertex 13.6192 -21.7808 14.1
      vertex 13.6192 -21.7808 12.1
    endloop
  endfacet
  facet normal -0.831468 -0.555572 0
    outer loop
      vertex 13.6192 -21.7808 14.1
      vertex 13.901 -22.2025 12.1
      vertex 13.901 -22.2025 14.1
    endloop
  endfacet
  facet normal 0.555574 -0.831467 0
    outer loop
      vertex 11.7808 -21.7808 12.1
      vertex 12.2025 -21.499 14.1
      vertex 11.7808 -21.7808 14.1
    endloop
  endfacet
  facet normal 0.555574 -0.831467 0
    outer loop
      vertex 12.2025 -21.499 14.1
      vertex 11.7808 -21.7808 12.1
      vertex 12.2025 -21.499 12.1
    endloop
  endfacet
  facet normal 0.831468 -0.555572 0
    outer loop
      vertex 11.499 -22.2025 14.1
      vertex 11.7808 -21.7808 12.1
      vertex 11.7808 -21.7808 14.1
    endloop
  endfacet
  facet normal 0.831468 -0.555572 0
    outer loop
      vertex 11.7808 -21.7808 12.1
      vertex 11.499 -22.2025 14.1
      vertex 11.499 -22.2025 12.1
    endloop
  endfacet
  facet normal -0.980785 0.195092 0
    outer loop
      vertex 13.901 -23.1975 12.1
      vertex 14 -22.7 14.1
      vertex 14 -22.7 12.1
    endloop
  endfacet
  facet normal -0.980785 0.195092 0
    outer loop
      vertex 14 -22.7 14.1
      vertex 13.901 -23.1975 12.1
      vertex 13.901 -23.1975 14.1
    endloop
  endfacet
  facet normal -0.195088 -0.980786 0
    outer loop
      vertex 12.7 -21.4 12.1
      vertex 13.1975 -21.499 14.1
      vertex 12.7 -21.4 14.1
    endloop
  endfacet
  facet normal -0.195088 -0.980786 -0
    outer loop
      vertex 13.1975 -21.499 14.1
      vertex 12.7 -21.4 12.1
      vertex 13.1975 -21.499 12.1
    endloop
  endfacet
  facet normal 0.980786 -0.195089 0
    outer loop
      vertex 11.4 -22.7 14.1
      vertex 11.499 -22.2025 12.1
      vertex 11.499 -22.2025 14.1
    endloop
  endfacet
  facet normal 0.980786 -0.195089 0
    outer loop
      vertex 11.499 -22.2025 12.1
      vertex 11.4 -22.7 14.1
      vertex 11.4 -22.7 12.1
    endloop
  endfacet
  facet normal -0.555571 0.831469 0
    outer loop
      vertex 13.6192 -23.6192 12.1
      vertex 13.1975 -23.901 14.1
      vertex 13.6192 -23.6192 14.1
    endloop
  endfacet
  facet normal -0.555571 0.831469 0
    outer loop
      vertex 13.1975 -23.901 14.1
      vertex 13.6192 -23.6192 12.1
      vertex 13.1975 -23.901 12.1
    endloop
  endfacet
  facet normal -0.83147 0.55557 0
    outer loop
      vertex 13.6192 -23.6192 12.1
      vertex 13.901 -23.1975 14.1
      vertex 13.901 -23.1975 12.1
    endloop
  endfacet
  facet normal -0.83147 0.55557 0
    outer loop
      vertex 13.901 -23.1975 14.1
      vertex 13.6192 -23.6192 12.1
      vertex 13.6192 -23.6192 14.1
    endloop
  endfacet
  facet normal 0.195091 0.980785 -0
    outer loop
      vertex 12.7 -24 12.1
      vertex 12.2025 -23.901 14.1
      vertex 12.7 -24 14.1
    endloop
  endfacet
  facet normal 0.195091 0.980785 0
    outer loop
      vertex 12.2025 -23.901 14.1
      vertex 12.7 -24 12.1
      vertex 12.2025 -23.901 12.1
    endloop
  endfacet
  facet normal 0.555571 0.831469 -0
    outer loop
      vertex 12.2025 -23.901 12.1
      vertex 11.7808 -23.6192 14.1
      vertex 12.2025 -23.901 14.1
    endloop
  endfacet
  facet normal 0.555571 0.831469 0
    outer loop
      vertex 11.7808 -23.6192 14.1
      vertex 12.2025 -23.901 12.1
      vertex 11.7808 -23.6192 12.1
    endloop
  endfacet
  facet normal -0.195091 0.980785 0
    outer loop
      vertex 13.1975 -23.901 12.1
      vertex 12.7 -24 14.1
      vertex 13.1975 -23.901 14.1
    endloop
  endfacet
  facet normal -0.195091 0.980785 0
    outer loop
      vertex 12.7 -24 14.1
      vertex 13.1975 -23.901 12.1
      vertex 12.7 -24 12.1
    endloop
  endfacet
  facet normal 0.980785 -0.195091 0
    outer loop
      vertex -14 -22.7 14.1
      vertex -13.901 -22.2025 12.1
      vertex -13.901 -22.2025 14.1
    endloop
  endfacet
  facet normal 0.980785 -0.195091 0
    outer loop
      vertex -13.901 -22.2025 12.1
      vertex -14 -22.7 14.1
      vertex -14 -22.7 12.1
    endloop
  endfacet
  facet normal -0.980785 0.19509 0
    outer loop
      vertex -11.499 -23.1975 12.1
      vertex -11.4 -22.7 14.1
      vertex -11.4 -22.7 12.1
    endloop
  endfacet
  facet normal -0.980785 0.19509 0
    outer loop
      vertex -11.4 -22.7 14.1
      vertex -11.499 -23.1975 12.1
      vertex -11.499 -23.1975 14.1
    endloop
  endfacet
  facet normal 0.195091 0.980785 -0
    outer loop
      vertex -12.7 -24 12.1
      vertex -13.1975 -23.901 14.1
      vertex -12.7 -24 14.1
    endloop
  endfacet
  facet normal 0.195091 0.980785 0
    outer loop
      vertex -13.1975 -23.901 14.1
      vertex -12.7 -24 12.1
      vertex -13.1975 -23.901 12.1
    endloop
  endfacet
  facet normal 0.980785 0.195092 0
    outer loop
      vertex -13.901 -23.1975 14.1
      vertex -14 -22.7 12.1
      vertex -14 -22.7 14.1
    endloop
  endfacet
  facet normal 0.980785 0.195092 0
    outer loop
      vertex -14 -22.7 12.1
      vertex -13.901 -23.1975 14.1
      vertex -13.901 -23.1975 12.1
    endloop
  endfacet
  facet normal -0.555574 -0.831467 0
    outer loop
      vertex -12.2025 -21.499 12.1
      vertex -11.7808 -21.7808 14.1
      vertex -12.2025 -21.499 14.1
    endloop
  endfacet
  facet normal -0.555574 -0.831467 -0
    outer loop
      vertex -11.7808 -21.7808 14.1
      vertex -12.2025 -21.499 12.1
      vertex -11.7808 -21.7808 12.1
    endloop
  endfacet
  facet normal -0.555571 0.831469 0
    outer loop
      vertex -11.7808 -23.6192 12.1
      vertex -12.2025 -23.901 14.1
      vertex -11.7808 -23.6192 14.1
    endloop
  endfacet
  facet normal -0.555571 0.831469 0
    outer loop
      vertex -12.2025 -23.901 14.1
      vertex -11.7808 -23.6192 12.1
      vertex -12.2025 -23.901 12.1
    endloop
  endfacet
  facet normal 0.555571 0.831469 -0
    outer loop
      vertex -13.1975 -23.901 12.1
      vertex -13.6192 -23.6192 14.1
      vertex -13.1975 -23.901 14.1
    endloop
  endfacet
  facet normal 0.555571 0.831469 0
    outer loop
      vertex -13.6192 -23.6192 14.1
      vertex -13.1975 -23.901 12.1
      vertex -13.6192 -23.6192 12.1
    endloop
  endfacet
  facet normal 0.831468 -0.555572 0
    outer loop
      vertex -13.901 -22.2025 14.1
      vertex -13.6192 -21.7808 12.1
      vertex -13.6192 -21.7808 14.1
    endloop
  endfacet
  facet normal 0.831468 -0.555572 0
    outer loop
      vertex -13.6192 -21.7808 12.1
      vertex -13.901 -22.2025 14.1
      vertex -13.901 -22.2025 12.1
    endloop
  endfacet
  facet normal -0.831468 -0.555572 0
    outer loop
      vertex -11.499 -22.2025 12.1
      vertex -11.7808 -21.7808 14.1
      vertex -11.7808 -21.7808 12.1
    endloop
  endfacet
  facet normal -0.831468 -0.555572 0
    outer loop
      vertex -11.7808 -21.7808 14.1
      vertex -11.499 -22.2025 12.1
      vertex -11.499 -22.2025 14.1
    endloop
  endfacet
  facet normal 0.195088 -0.980786 0
    outer loop
      vertex -13.1975 -21.499 12.1
      vertex -12.7 -21.4 14.1
      vertex -13.1975 -21.499 14.1
    endloop
  endfacet
  facet normal 0.195088 -0.980786 0
    outer loop
      vertex -12.7 -21.4 14.1
      vertex -13.1975 -21.499 12.1
      vertex -12.7 -21.4 12.1
    endloop
  endfacet
  facet normal -0.195087 -0.980786 0
    outer loop
      vertex -12.7 -21.4 12.1
      vertex -12.2025 -21.499 14.1
      vertex -12.7 -21.4 14.1
    endloop
  endfacet
  facet normal -0.195087 -0.980786 -0
    outer loop
      vertex -12.2025 -21.499 14.1
      vertex -12.7 -21.4 12.1
      vertex -12.2025 -21.499 12.1
    endloop
  endfacet
  facet normal -0.83147 0.55557 0
    outer loop
      vertex -11.7808 -23.6192 12.1
      vertex -11.499 -23.1975 14.1
      vertex -11.499 -23.1975 12.1
    endloop
  endfacet
  facet normal -0.83147 0.55557 0
    outer loop
      vertex -11.499 -23.1975 14.1
      vertex -11.7808 -23.6192 12.1
      vertex -11.7808 -23.6192 14.1
    endloop
  endfacet
  facet normal -0.980786 -0.195089 0
    outer loop
      vertex -11.4 -22.7 12.1
      vertex -11.499 -22.2025 14.1
      vertex -11.499 -22.2025 12.1
    endloop
  endfacet
  facet normal -0.980786 -0.195089 0
    outer loop
      vertex -11.499 -22.2025 14.1
      vertex -11.4 -22.7 12.1
      vertex -11.4 -22.7 14.1
    endloop
  endfacet
  facet normal -0.195091 0.980785 0
    outer loop
      vertex -12.2025 -23.901 12.1
      vertex -12.7 -24 14.1
      vertex -12.2025 -23.901 14.1
    endloop
  endfacet
  facet normal -0.195091 0.980785 0
    outer loop
      vertex -12.7 -24 14.1
      vertex -12.2025 -23.901 12.1
      vertex -12.7 -24 12.1
    endloop
  endfacet
  facet normal 0.83147 0.55557 0
    outer loop
      vertex -13.6192 -23.6192 14.1
      vertex -13.901 -23.1975 12.1
      vertex -13.901 -23.1975 14.1
    endloop
  endfacet
  facet normal 0.83147 0.55557 0
    outer loop
      vertex -13.901 -23.1975 12.1
      vertex -13.6192 -23.6192 14.1
      vertex -13.6192 -23.6192 12.1
    endloop
  endfacet
  facet normal 0.555574 -0.831467 0
    outer loop
      vertex -13.6192 -21.7808 12.1
      vertex -13.1975 -21.499 14.1
      vertex -13.6192 -21.7808 14.1
    endloop
  endfacet
  facet normal 0.555574 -0.831467 0
    outer loop
      vertex -13.1975 -21.499 14.1
      vertex -13.6192 -21.7808 12.1
      vertex -13.1975 -21.499 12.1
    endloop
  endfacet
  facet normal -1 0 0
    outer loop
      vertex -27 -32 12.1
      vertex -27 -22.01 14.1
      vertex -27 -22.01 12.1
    endloop
  endfacet
  facet normal -1 -0 0
    outer loop
      vertex -27 -22.01 14.1
      vertex -27 -32 12.1
      vertex -27 -32 14.1
    endloop
  endfacet
  facet normal 0 0 1
    outer loop
      vertex -24.99 32 14.1
      vertex -25.005 32 14.1
      vertex -24.99 -22 14.1
    endloop
  endfacet
  facet normal 0 0 1
    outer loop
      vertex 11.1399 6.28845 14.1
      vertex 4.28381 0.00244164 14.1
      vertex 11.1399 -6.28357 14.1
    endloop
  endfacet
  facet normal 0 0 1
    outer loop
      vertex 18.701 14.2025 14.1
      vertex 27 32 14.1
      vertex 18.8 14.7 14.1
    endloop
  endfacet
  facet normal 0 0 1
    outer loop
      vertex 27 32 14.1
      vertex 18.701 15.1975 14.1
      vertex 18.8 14.7 14.1
    endloop
  endfacet
  facet normal 0 0 1
    outer loop
      vertex 27 32 14.1
      vertex 18.4192 15.6192 14.1
      vertex 18.701 15.1975 14.1
    endloop
  endfacet
  facet normal 0 0 1
    outer loop
      vertex 27 32 14.1
      vertex 17.9975 15.901 14.1
      vertex 18.4192 15.6192 14.1
    endloop
  endfacet
  facet normal 0 0 1
    outer loop
      vertex 27 32 14.1
      vertex 17.5 16 14.1
      vertex 17.9975 15.901 14.1
    endloop
  endfacet
  facet normal 0 0 1
    outer loop
      vertex 27 32 14.1
      vertex 17.0025 15.901 14.1
      vertex 17.5 16 14.1
    endloop
  endfacet
  facet normal -0 0 1
    outer loop
      vertex -2.57227 20 14.1
      vertex 17.0025 15.901 14.1
      vertex 27 32 14.1
    endloop
  endfacet
  facet normal 0 0 1
    outer loop
      vertex 17.0025 15.901 14.1
      vertex -2.57227 20 14.1
      vertex 16.5808 15.6192 14.1
    endloop
  endfacet
  facet normal 0 0 1
    outer loop
      vertex 27 -32 14.1
      vertex 13.901 -22.2025 14.1
      vertex 14 -22.7 14.1
    endloop
  endfacet
  facet normal 0 0 1
    outer loop
      vertex 16.299 14.2025 14.1
      vertex 11.1399 -6.28357 14.1
      vertex 13.901 -22.2025 14.1
    endloop
  endfacet
  facet normal 0 0 1
    outer loop
      vertex 13.901 -22.2025 14.1
      vertex 11.1399 -6.28357 14.1
      vertex 13.6192 -21.7808 14.1
    endloop
  endfacet
  facet normal 0 0 1
    outer loop
      vertex 13.6192 -21.7808 14.1
      vertex 11.1399 -6.28357 14.1
      vertex 13.1975 -21.499 14.1
    endloop
  endfacet
  facet normal 0 0 1
    outer loop
      vertex 13.1975 -21.499 14.1
      vertex 11.1399 -6.28357 14.1
      vertex 12.7 -21.4 14.1
    endloop
  endfacet
  facet normal 0 0 1
    outer loop
      vertex 12.7 -21.4 14.1
      vertex 11.1399 -6.28357 14.1
      vertex 12.2025 -21.499 14.1
    endloop
  endfacet
  facet normal 0 0 1
    outer loop
      vertex 12.2025 -21.499 14.1
      vertex 11.1399 -6.28357 14.1
      vertex 11.7808 -21.7808 14.1
    endloop
  endfacet
  facet normal -0 0 1
    outer loop
      vertex -2.57226 -20 14.1
      vertex 11.7808 -21.7808 14.1
      vertex 11.1399 -6.28357 14.1
    endloop
  endfacet
  facet normal 0 0 1
    outer loop
      vertex 16.299 14.2025 14.1
      vertex 11.1399 6.28845 14.1
      vertex 11.1399 -6.28357 14.1
    endloop
  endfacet
  facet normal 0 0 1
    outer loop
      vertex -2.57227 20 14.1
      vertex 16.2 14.7 14.1
      vertex 16.299 15.1975 14.1
    endloop
  endfacet
  facet normal 0 0 1
    outer loop
      vertex 16.2 14.7 14.1
      vertex -2.57227 20 14.1
      vertex 11.1399 6.28845 14.1
    endloop
  endfacet
  facet normal 0 0 1
    outer loop
      vertex 16.5808 15.6192 14.1
      vertex -2.57227 20 14.1
      vertex 16.299 15.1975 14.1
    endloop
  endfacet
  facet normal -0 0 1
    outer loop
      vertex -16.299 14.2025 14.1
      vertex -6 2.86011 14.1
      vertex -6 16.5723 14.1
    endloop
  endfacet
  facet normal -0 0 1
    outer loop
      vertex -17.0025 13.499 14.1
      vertex -6 2.86011 14.1
      vertex -16.5808 13.7808 14.1
    endloop
  endfacet
  facet normal -0 0 1
    outer loop
      vertex -17.5 13.4 14.1
      vertex -6 2.86011 14.1
      vertex -17.0025 13.499 14.1
    endloop
  endfacet
  facet normal 0 0 1
    outer loop
      vertex -6 -16.568 14.1
      vertex -11.499 -22.2025 14.1
      vertex -11.4 -22.7 14.1
    endloop
  endfacet
  facet normal 0 0 1
    outer loop
      vertex -6 -16.568 14.1
      vertex -11.7808 -21.7808 14.1
      vertex -11.499 -22.2025 14.1
    endloop
  endfacet
  facet normal 0 0 1
    outer loop
      vertex -6 -16.568 14.1
      vertex -12.2025 -21.499 14.1
      vertex -11.7808 -21.7808 14.1
    endloop
  endfacet
  facet normal 0 0 1
    outer loop
      vertex -17.9975 13.499 14.1
      vertex -6 -2.85583 14.1
      vertex -17.5 13.4 14.1
    endloop
  endfacet
  facet normal 0 0 1
    outer loop
      vertex -6 -16.568 14.1
      vertex -12.7 -21.4 14.1
      vertex -12.2025 -21.499 14.1
    endloop
  endfacet
  facet normal 0 -0 1
    outer loop
      vertex -13.1975 -21.499 14.1
      vertex -6 -2.85583 14.1
      vertex -22.99 -22 14.1
    endloop
  endfacet
  facet normal 0 0 1
    outer loop
      vertex -6 -16.568 14.1
      vertex -13.1975 -21.499 14.1
      vertex -12.7 -21.4 14.1
    endloop
  endfacet
  facet normal 0 0 1
    outer loop
      vertex -6 2.86011 14.1
      vertex -16.299 14.2025 14.1
      vertex -16.5808 13.7808 14.1
    endloop
  endfacet
  facet normal 0 0 1
    outer loop
      vertex -16.299 14.2025 14.1
      vertex -6 16.5723 14.1
      vertex -16.2 14.7 14.1
    endloop
  endfacet
  facet normal 0 0 1
    outer loop
      vertex -17.0025 15.901 14.1
      vertex -6 16.5723 14.1
      vertex -2.57227 20 14.1
    endloop
  endfacet
  facet normal -0 0 1
    outer loop
      vertex -22.99 32 14.1
      vertex -2.57227 20 14.1
      vertex 27 32 14.1
    endloop
  endfacet
  facet normal 0 0 1
    outer loop
      vertex -6 16.5723 14.1
      vertex -16.299 15.1975 14.1
      vertex -16.2 14.7 14.1
    endloop
  endfacet
  facet normal 0 0 1
    outer loop
      vertex -6 16.5723 14.1
      vertex -16.5808 15.6192 14.1
      vertex -16.299 15.1975 14.1
    endloop
  endfacet
  facet normal 0 -0 1
    outer loop
      vertex -17.0025 15.901 14.1
      vertex -2.57227 20 14.1
      vertex -22.99 32 14.1
    endloop
  endfacet
  facet normal 0 0 1
    outer loop
      vertex -6 16.5723 14.1
      vertex -17.0025 15.901 14.1
      vertex -16.5808 15.6192 14.1
    endloop
  endfacet
  facet normal 0 0 1
    outer loop
      vertex -17.0025 15.901 14.1
      vertex -22.99 32 14.1
      vertex -17.5 16 14.1
    endloop
  endfacet
  facet normal 0 0 1
    outer loop
      vertex -18.701 15.1975 14.1
      vertex -22.99 32 14.1
      vertex -18.8 14.7 14.1
    endloop
  endfacet
  facet normal 0 0 1
    outer loop
      vertex -18.4192 15.6192 14.1
      vertex -22.99 32 14.1
      vertex -18.701 15.1975 14.1
    endloop
  endfacet
  facet normal 0 0 1
    outer loop
      vertex -17.9975 15.901 14.1
      vertex -22.99 32 14.1
      vertex -18.4192 15.6192 14.1
    endloop
  endfacet
  facet normal 0 0 1
    outer loop
      vertex -17.5 16 14.1
      vertex -22.99 32 14.1
      vertex -17.9975 15.901 14.1
    endloop
  endfacet
  facet normal 0 0 1
    outer loop
      vertex 27 32 14.1
      vertex 18.701 14.2025 14.1
      vertex 27 -32 14.1
    endloop
  endfacet
  facet normal -0 0 1
    outer loop
      vertex 18.4192 13.7808 14.1
      vertex 27 -32 14.1
      vertex 18.701 14.2025 14.1
    endloop
  endfacet
  facet normal 0 0 1
    outer loop
      vertex 13.901 -22.2025 14.1
      vertex 18.4192 13.7808 14.1
      vertex 17.9975 13.499 14.1
    endloop
  endfacet
  facet normal 0 0 1
    outer loop
      vertex 13.901 -22.2025 14.1
      vertex 17.9975 13.499 14.1
      vertex 17.5 13.4 14.1
    endloop
  endfacet
  facet normal 0 0 1
    outer loop
      vertex 13.901 -22.2025 14.1
      vertex 17.5 13.4 14.1
      vertex 17.0025 13.499 14.1
    endloop
  endfacet
  facet normal 0 0 1
    outer loop
      vertex 13.901 -22.2025 14.1
      vertex 17.0025 13.499 14.1
      vertex 16.5808 13.7808 14.1
    endloop
  endfacet
  facet normal 0 0 1
    outer loop
      vertex 13.901 -22.2025 14.1
      vertex 16.5808 13.7808 14.1
      vertex 16.299 14.2025 14.1
    endloop
  endfacet
  facet normal 0 0 1
    outer loop
      vertex 11.1399 6.28845 14.1
      vertex 16.299 14.2025 14.1
      vertex 16.2 14.7 14.1
    endloop
  endfacet
  facet normal -0 0 1
    outer loop
      vertex 13.901 -22.2025 14.1
      vertex 27 -32 14.1
      vertex 18.4192 13.7808 14.1
    endloop
  endfacet
  facet normal -0 0 1
    outer loop
      vertex 13.901 -23.1975 14.1
      vertex 27 -32 14.1
      vertex 14 -22.7 14.1
    endloop
  endfacet
  facet normal -0 0 1
    outer loop
      vertex 13.6192 -23.6192 14.1
      vertex 27 -32 14.1
      vertex 13.901 -23.1975 14.1
    endloop
  endfacet
  facet normal -0 0 1
    outer loop
      vertex 13.1975 -23.901 14.1
      vertex 27 -32 14.1
      vertex 13.6192 -23.6192 14.1
    endloop
  endfacet
  facet normal -0 0 1
    outer loop
      vertex 12.7 -24 14.1
      vertex 27 -32 14.1
      vertex 13.1975 -23.901 14.1
    endloop
  endfacet
  facet normal 0 0 1
    outer loop
      vertex 12.2025 -23.901 14.1
      vertex 27 -32 14.1
      vertex 12.7 -24 14.1
    endloop
  endfacet
  facet normal 0 0 1
    outer loop
      vertex 11.7808 -21.7808 14.1
      vertex -2.57226 -20 14.1
      vertex 11.499 -22.2025 14.1
    endloop
  endfacet
  facet normal 0 0 1
    outer loop
      vertex 11.499 -22.2025 14.1
      vertex -2.57226 -20 14.1
      vertex 11.4 -22.7 14.1
    endloop
  endfacet
  facet normal 0 0 1
    outer loop
      vertex -2.57226 -20 14.1
      vertex 11.499 -23.1975 14.1
      vertex 11.4 -22.7 14.1
    endloop
  endfacet
  facet normal 0 0 1
    outer loop
      vertex -2.57226 -20 14.1
      vertex 11.7808 -23.6192 14.1
      vertex 11.499 -23.1975 14.1
    endloop
  endfacet
  facet normal 0 0 1
    outer loop
      vertex -11.7808 -23.6192 14.1
      vertex 11.7808 -23.6192 14.1
      vertex -2.57226 -20 14.1
    endloop
  endfacet
  facet normal 0 0 1
    outer loop
      vertex 11.7808 -23.6192 14.1
      vertex -11.7808 -23.6192 14.1
      vertex 12.2025 -23.901 14.1
    endloop
  endfacet
  facet normal 0 0 1
    outer loop
      vertex -11.4 -22.7 14.1
      vertex -2.57226 -20 14.1
      vertex -6 -16.568 14.1
    endloop
  endfacet
  facet normal 0 0 1
    outer loop
      vertex -11.499 -23.1975 14.1
      vertex -2.57226 -20 14.1
      vertex -11.4 -22.7 14.1
    endloop
  endfacet
  facet normal 0 0 1
    outer loop
      vertex -11.7808 -23.6192 14.1
      vertex -2.57226 -20 14.1
      vertex -11.499 -23.1975 14.1
    endloop
  endfacet
  facet normal 0 0 1
    outer loop
      vertex 12.2025 -23.901 14.1
      vertex -11.7808 -23.6192 14.1
      vertex -12.2025 -23.901 14.1
    endloop
  endfacet
  facet normal 0 0 1
    outer loop
      vertex 12.2025 -23.901 14.1
      vertex -12.2025 -23.901 14.1
      vertex 27 -32 14.1
    endloop
  endfacet
  facet normal 0 0 1
    outer loop
      vertex -27 -32 14.1
      vertex -12.2025 -23.901 14.1
      vertex -12.7 -24 14.1
    endloop
  endfacet
  facet normal 0 0 1
    outer loop
      vertex -27 -32 14.1
      vertex -12.7 -24 14.1
      vertex -13.1975 -23.901 14.1
    endloop
  endfacet
  facet normal 0 0 1
    outer loop
      vertex -6 2.86011 14.1
      vertex -17.5 13.4 14.1
      vertex -6 -2.85583 14.1
    endloop
  endfacet
  facet normal 0 0 1
    outer loop
      vertex -6 -2.85583 14.1
      vertex -13.1975 -21.499 14.1
      vertex -6 -16.568 14.1
    endloop
  endfacet
  facet normal 0 0 1
    outer loop
      vertex -13.1975 -21.499 14.1
      vertex -22.99 -22 14.1
      vertex -13.6192 -21.7808 14.1
    endloop
  endfacet
  facet normal 0 0 1
    outer loop
      vertex -13.6192 -21.7808 14.1
      vertex -22.99 -22 14.1
      vertex -13.901 -22.2025 14.1
    endloop
  endfacet
  facet normal 0 0 1
    outer loop
      vertex -6 -2.85583 14.1
      vertex -17.9975 13.499 14.1
      vertex -22.99 -22 14.1
    endloop
  endfacet
  facet normal 0 0 1
    outer loop
      vertex -22.99 -22 14.1
      vertex -17.9975 13.499 14.1
      vertex -18.4192 13.7808 14.1
    endloop
  endfacet
  facet normal 0 0 1
    outer loop
      vertex -22.99 -22 14.1
      vertex -18.4192 13.7808 14.1
      vertex -18.701 14.2025 14.1
    endloop
  endfacet
  facet normal 0 0 1
    outer loop
      vertex -22.99 -22 14.1
      vertex -18.701 14.2025 14.1
      vertex -18.8 14.7 14.1
    endloop
  endfacet
  facet normal 0 0 1
    outer loop
      vertex -22.99 -22 14.1
      vertex -18.8 14.7 14.1
      vertex -22.99 32 14.1
    endloop
  endfacet
  facet normal 0 0 1
    outer loop
      vertex -13.901 -22.2025 14.1
      vertex -22.99 -22 14.1
      vertex -14 -22.7 14.1
    endloop
  endfacet
  facet normal 0 0 1
    outer loop
      vertex -22.99 -22 14.1
      vertex -13.901 -23.1975 14.1
      vertex -14 -22.7 14.1
    endloop
  endfacet
  facet normal 0 0 1
    outer loop
      vertex -22.99 -22 14.1
      vertex -13.6192 -23.6192 14.1
      vertex -13.901 -23.1975 14.1
    endloop
  endfacet
  facet normal 0 0 1
    outer loop
      vertex -27 -32 14.1
      vertex -13.6192 -23.6192 14.1
      vertex -22.99 -22 14.1
    endloop
  endfacet
  facet normal 0 0 1
    outer loop
      vertex -13.6192 -23.6192 14.1
      vertex -27 -32 14.1
      vertex -13.1975 -23.901 14.1
    endloop
  endfacet
  facet normal 0 0 1
    outer loop
      vertex -25.005 -22.01 14.1
      vertex -22.99 -22 14.1
      vertex -24.99 -22 14.1
    endloop
  endfacet
  facet normal 0 0 1
    outer loop
      vertex -25.005 -22.01 14.1
      vertex -24.99 -22 14.1
      vertex -25.005 32 14.1
    endloop
  endfacet
  facet normal 0 0 1
    outer loop
      vertex -22.99 -22 14.1
      vertex -25.005 -22.01 14.1
      vertex -27 -32 14.1
    endloop
  endfacet
  facet normal 0 0 1
    outer loop
      vertex -27 -32 14.1
      vertex -25.005 -22.01 14.1
      vertex -27 -22.01 14.1
    endloop
  endfacet
  facet normal 0 0 1
    outer loop
      vertex -12.2025 -23.901 14.1
      vertex -27 -32 14.1
      vertex 27 -32 14.1
    endloop
  endfacet
  facet normal 0 0 1
    outer loop
      vertex -2.78577 0.00223176 14.1
      vertex -6 2.86011 14.1
      vertex -6 -2.85583 14.1
    endloop
  endfacet
  facet normal 0 0 1
    outer loop
      vertex 4.28381 6.28845 14.1
      vertex -2.57226 6.28845 14.1
      vertex 0.803274 3.19358 14.1
    endloop
  endfacet
  facet normal 0 -0 1
    outer loop
      vertex -2.57226 6.28845 14.1
      vertex 4.28381 6.28845 14.1
      vertex -2.57227 13.1445 14.1
    endloop
  endfacet
  facet normal 0 0 1
    outer loop
      vertex -2.57226 -6.28357 14.1
      vertex 4.28381 -6.28357 14.1
      vertex 0.803159 -3.1888 14.1
    endloop
  endfacet
  facet normal 0 0 1
    outer loop
      vertex 4.28381 -6.28357 14.1
      vertex -2.57226 -6.28357 14.1
      vertex -2.57226 -13.1396 14.1
    endloop
  endfacet
  facet normal 1 -0 0
    outer loop
      vertex 27 -32 14.1
      vertex 27 32 12.1
      vertex 27 32 14.1
    endloop
  endfacet
  facet normal 1 0 0
    outer loop
      vertex 27 32 12.1
      vertex 27 -32 14.1
      vertex 27 -32 12.1
    endloop
  endfacet
  facet normal 0 1 -0
    outer loop
      vertex 27 32 12.1
      vertex -22.99 32 14.1
      vertex 27 32 14.1
    endloop
  endfacet
  facet normal 0 1 0
    outer loop
      vertex -25.005 32 12.1
      vertex -22.99 32 14.1
      vertex 27 32 12.1
    endloop
  endfacet
  facet normal 0 1 0
    outer loop
      vertex -22.99 32 14.1
      vertex -25.005 32 12.1
      vertex -24.99 32 14.1
    endloop
  endfacet
  facet normal 0 1 0
    outer loop
      vertex -24.99 32 14.1
      vertex -25.005 32 12.1
      vertex -25.005 32 14.1
    endloop
  endfacet
  facet normal 0 1 -0
    outer loop
      vertex -22.99 32 14.1
      vertex -24.99 32 32.1
      vertex -22.99 32 32.1
    endloop
  endfacet
  facet normal 0 1 0
    outer loop
      vertex -24.99 32 32.1
      vertex -22.99 32 14.1
      vertex -24.99 32 14.1
    endloop
  endfacet
  facet normal 0 0 -1
    outer loop
      vertex 18.701 14.2025 12.1
      vertex 27 32 12.1
      vertex 27 -32 12.1
    endloop
  endfacet
  facet normal 0 0 -1
    outer loop
      vertex 27 32 12.1
      vertex 18.701 14.2025 12.1
      vertex 18.8 14.7 12.1
    endloop
  endfacet
  facet normal 0 0 -1
    outer loop
      vertex 27 -32 12.1
      vertex 18.4192 13.7808 12.1
      vertex 18.701 14.2025 12.1
    endloop
  endfacet
  facet normal 0 0 -1
    outer loop
      vertex 13.6192 -21.7808 12.1
      vertex 18.4192 13.7808 12.1
      vertex 27 -32 12.1
    endloop
  endfacet
  facet normal 0 0 -1
    outer loop
      vertex 18.4192 13.7808 12.1
      vertex 13.6192 -21.7808 12.1
      vertex 17.9975 13.499 12.1
    endloop
  endfacet
  facet normal 0 0 -1
    outer loop
      vertex 13.1975 -21.499 12.1
      vertex 17.9975 13.499 12.1
      vertex 13.6192 -21.7808 12.1
    endloop
  endfacet
  facet normal 0 0 -1
    outer loop
      vertex 17.9975 13.499 12.1
      vertex 13.1975 -21.499 12.1
      vertex 17.5 13.4 12.1
    endloop
  endfacet
  facet normal 0 0 -1
    outer loop
      vertex 12.7 -21.4 12.1
      vertex 17.5 13.4 12.1
      vertex 13.1975 -21.499 12.1
    endloop
  endfacet
  facet normal 0 0 -1
    outer loop
      vertex 13.6192 -21.7808 12.1
      vertex 27 -32 12.1
      vertex 13.901 -22.2025 12.1
    endloop
  endfacet
  facet normal 0 0 -1
    outer loop
      vertex 13.901 -22.2025 12.1
      vertex 27 -32 12.1
      vertex 14 -22.7 12.1
    endloop
  endfacet
  facet normal 0 0 -1
    outer loop
      vertex 27 -32 12.1
      vertex 13.901 -23.1975 12.1
      vertex 14 -22.7 12.1
    endloop
  endfacet
  facet normal 0 0 -1
    outer loop
      vertex 27 -32 12.1
      vertex 13.6192 -23.6192 12.1
      vertex 13.901 -23.1975 12.1
    endloop
  endfacet
  facet normal 0 0 -1
    outer loop
      vertex 27 -32 12.1
      vertex 13.1975 -23.901 12.1
      vertex 13.6192 -23.6192 12.1
    endloop
  endfacet
  facet normal 0 0 -1
    outer loop
      vertex 27 -32 12.1
      vertex 12.7 -24 12.1
      vertex 13.1975 -23.901 12.1
    endloop
  endfacet
  facet normal 0 0 -1
    outer loop
      vertex 27 -32 12.1
      vertex 12.2025 -23.901 12.1
      vertex 12.7 -24 12.1
    endloop
  endfacet
  facet normal 0 0 -1
    outer loop
      vertex 11.499 -23.1975 12.1
      vertex -11.4 -22.7 12.1
      vertex 11.4 -22.7 12.1
    endloop
  endfacet
  facet normal 0 0 -1
    outer loop
      vertex -11.499 -23.1975 12.1
      vertex 11.499 -23.1975 12.1
      vertex 11.7808 -23.6192 12.1
    endloop
  endfacet
  facet normal 0 0 -1
    outer loop
      vertex -11.7808 -23.6192 12.1
      vertex 11.7808 -23.6192 12.1
      vertex 12.2025 -23.901 12.1
    endloop
  endfacet
  facet normal 0 0 -1
    outer loop
      vertex -12.2025 -23.901 12.1
      vertex 12.2025 -23.901 12.1
      vertex 27 -32 12.1
    endloop
  endfacet
  facet normal 0 0 -1
    outer loop
      vertex 11.499 -23.1975 12.1
      vertex -11.499 -23.1975 12.1
      vertex -11.4 -22.7 12.1
    endloop
  endfacet
  facet normal 0 0 -1
    outer loop
      vertex 11.7808 -23.6192 12.1
      vertex -11.7808 -23.6192 12.1
      vertex -11.499 -23.1975 12.1
    endloop
  endfacet
  facet normal 0 0 -1
    outer loop
      vertex 12.2025 -23.901 12.1
      vertex -12.2025 -23.901 12.1
      vertex -11.7808 -23.6192 12.1
    endloop
  endfacet
  facet normal 0 0 -1
    outer loop
      vertex -27 -32 12.1
      vertex -12.2025 -23.901 12.1
      vertex 27 -32 12.1
    endloop
  endfacet
  facet normal 0 0 -1
    outer loop
      vertex -12.2025 -23.901 12.1
      vertex -27 -32 12.1
      vertex -12.7 -24 12.1
    endloop
  endfacet
  facet normal -0 0 -1
    outer loop
      vertex 16.2 14.7 12.1
      vertex -16.299 14.2025 12.1
      vertex -16.2 14.7 12.1
    endloop
  endfacet
  facet normal 0 0 -1
    outer loop
      vertex -13.901 -22.2025 12.1
      vertex -16.5808 13.7808 12.1
      vertex -16.299 14.2025 12.1
    endloop
  endfacet
  facet normal 0 0 -1
    outer loop
      vertex -13.901 -22.2025 12.1
      vertex -17.0025 13.499 12.1
      vertex -16.5808 13.7808 12.1
    endloop
  endfacet
  facet normal 0 0 -1
    outer loop
      vertex -13.901 -22.2025 12.1
      vertex -17.5 13.4 12.1
      vertex -17.0025 13.499 12.1
    endloop
  endfacet
  facet normal 0 0 -1
    outer loop
      vertex -13.901 -22.2025 12.1
      vertex -25.005 -22.01 12.1
      vertex -17.5 13.4 12.1
    endloop
  endfacet
  facet normal -0 0 -1
    outer loop
      vertex -17.5 13.4 12.1
      vertex -25.005 -22.01 12.1
      vertex -17.9975 13.499 12.1
    endloop
  endfacet
  facet normal -0 0 -1
    outer loop
      vertex -17.9975 13.499 12.1
      vertex -25.005 -22.01 12.1
      vertex -18.4192 13.7808 12.1
    endloop
  endfacet
  facet normal -0 0 -1
    outer loop
      vertex -18.4192 13.7808 12.1
      vertex -25.005 -22.01 12.1
      vertex -18.701 14.2025 12.1
    endloop
  endfacet
  facet normal -0 0 -1
    outer loop
      vertex -18.701 14.2025 12.1
      vertex -25.005 -22.01 12.1
      vertex -18.8 14.7 12.1
    endloop
  endfacet
  facet normal 0 0 -1
    outer loop
      vertex -13.901 -23.1975 12.1
      vertex -25.005 -22.01 12.1
      vertex -14 -22.7 12.1
    endloop
  endfacet
  facet normal 0 0 -1
    outer loop
      vertex -13.6192 -23.6192 12.1
      vertex -25.005 -22.01 12.1
      vertex -13.901 -23.1975 12.1
    endloop
  endfacet
  facet normal 0 0 -1
    outer loop
      vertex -27 -32 12.1
      vertex -13.6192 -23.6192 12.1
      vertex -13.1975 -23.901 12.1
    endloop
  endfacet
  facet normal -0 0 -1
    outer loop
      vertex -12.7 -24 12.1
      vertex -27 -32 12.1
      vertex -13.1975 -23.901 12.1
    endloop
  endfacet
  facet normal -0 0 -1
    outer loop
      vertex -13.6192 -23.6192 12.1
      vertex -27 -32 12.1
      vertex -25.005 -22.01 12.1
    endloop
  endfacet
  facet normal -0 0 -1
    outer loop
      vertex -25.005 -22.01 12.1
      vertex -27 -32 12.1
      vertex -27 -22.01 12.1
    endloop
  endfacet
  facet normal 0 0 -1
    outer loop
      vertex 18.701 15.1975 12.1
      vertex 27 32 12.1
      vertex 18.8 14.7 12.1
    endloop
  endfacet
  facet normal 0 0 -1
    outer loop
      vertex 18.4192 15.6192 12.1
      vertex 27 32 12.1
      vertex 18.701 15.1975 12.1
    endloop
  endfacet
  facet normal 0 0 -1
    outer loop
      vertex 17.9975 15.901 12.1
      vertex 27 32 12.1
      vertex 18.4192 15.6192 12.1
    endloop
  endfacet
  facet normal 0 0 -1
    outer loop
      vertex 17.5 16 12.1
      vertex 27 32 12.1
      vertex 17.9975 15.901 12.1
    endloop
  endfacet
  facet normal 0 0 -1
    outer loop
      vertex 17.0025 15.901 12.1
      vertex 27 32 12.1
      vertex 17.5 16 12.1
    endloop
  endfacet
  facet normal 0 0 -1
    outer loop
      vertex 16.5808 15.6192 12.1
      vertex 27 32 12.1
      vertex 17.0025 15.901 12.1
    endloop
  endfacet
  facet normal 0 0 -1
    outer loop
      vertex -16.5808 15.6192 12.1
      vertex 16.5808 15.6192 12.1
      vertex 16.299 15.1975 12.1
    endloop
  endfacet
  facet normal -0 0 -1
    outer loop
      vertex 17.5 13.4 12.1
      vertex 12.7 -21.4 12.1
      vertex 17.0025 13.499 12.1
    endloop
  endfacet
  facet normal 0 0 -1
    outer loop
      vertex 12.2025 -21.499 12.1
      vertex 17.0025 13.499 12.1
      vertex 12.7 -21.4 12.1
    endloop
  endfacet
  facet normal -0 0 -1
    outer loop
      vertex 17.0025 13.499 12.1
      vertex 12.2025 -21.499 12.1
      vertex 16.5808 13.7808 12.1
    endloop
  endfacet
  facet normal 0 0 -1
    outer loop
      vertex -16.299 14.2025 12.1
      vertex 16.5808 13.7808 12.1
      vertex 12.2025 -21.499 12.1
    endloop
  endfacet
  facet normal 0 0 -1
    outer loop
      vertex 16.5808 13.7808 12.1
      vertex -16.299 14.2025 12.1
      vertex 16.299 14.2025 12.1
    endloop
  endfacet
  facet normal 0 0 -1
    outer loop
      vertex -12.2025 -21.499 12.1
      vertex 12.2025 -21.499 12.1
      vertex 11.7808 -21.7808 12.1
    endloop
  endfacet
  facet normal 0 0 -1
    outer loop
      vertex -11.7808 -21.7808 12.1
      vertex 11.7808 -21.7808 12.1
      vertex 11.499 -22.2025 12.1
    endloop
  endfacet
  facet normal 0 0 -1
    outer loop
      vertex -11.499 -22.2025 12.1
      vertex 11.499 -22.2025 12.1
      vertex 11.4 -22.7 12.1
    endloop
  endfacet
  facet normal 0 0 -1
    outer loop
      vertex -11.499 -22.2025 12.1
      vertex 11.4 -22.7 12.1
      vertex -11.4 -22.7 12.1
    endloop
  endfacet
  facet normal 0 0 -1
    outer loop
      vertex 11.499 -22.2025 12.1
      vertex -11.499 -22.2025 12.1
      vertex -11.7808 -21.7808 12.1
    endloop
  endfacet
  facet normal 0 0 -1
    outer loop
      vertex 11.7808 -21.7808 12.1
      vertex -11.7808 -21.7808 12.1
      vertex -12.2025 -21.499 12.1
    endloop
  endfacet
  facet normal 0 0 -1
    outer loop
      vertex -16.299 14.2025 12.1
      vertex 12.2025 -21.499 12.1
      vertex -12.2025 -21.499 12.1
    endloop
  endfacet
  facet normal 0 0 -1
    outer loop
      vertex 16.299 14.2025 12.1
      vertex -16.299 14.2025 12.1
      vertex 16.2 14.7 12.1
    endloop
  endfacet
  facet normal 0 0 -1
    outer loop
      vertex 16.2 14.7 12.1
      vertex -16.2 14.7 12.1
      vertex 16.299 15.1975 12.1
    endloop
  endfacet
  facet normal 0 0 -1
    outer loop
      vertex -16.299 14.2025 12.1
      vertex -12.2025 -21.499 12.1
      vertex -12.7 -21.4 12.1
    endloop
  endfacet
  facet normal 0 0 -1
    outer loop
      vertex -16.299 14.2025 12.1
      vertex -12.7 -21.4 12.1
      vertex -13.1975 -21.499 12.1
    endloop
  endfacet
  facet normal 0 0 -1
    outer loop
      vertex -16.299 14.2025 12.1
      vertex -13.1975 -21.499 12.1
      vertex -13.6192 -21.7808 12.1
    endloop
  endfacet
  facet normal 0 0 -1
    outer loop
      vertex -25.005 -22.01 12.1
      vertex -13.901 -22.2025 12.1
      vertex -14 -22.7 12.1
    endloop
  endfacet
  facet normal 0 0 -1
    outer loop
      vertex -16.299 14.2025 12.1
      vertex -13.6192 -21.7808 12.1
      vertex -13.901 -22.2025 12.1
    endloop
  endfacet
  facet normal 0 0 -1
    outer loop
      vertex -16.299 15.1975 12.1
      vertex 16.299 15.1975 12.1
      vertex -16.2 14.7 12.1
    endloop
  endfacet
  facet normal 0 0 -1
    outer loop
      vertex -16.5808 15.6192 12.1
      vertex 16.299 15.1975 12.1
      vertex -16.299 15.1975 12.1
    endloop
  endfacet
  facet normal 0 0 -1
    outer loop
      vertex 16.5808 15.6192 12.1
      vertex -16.5808 15.6192 12.1
      vertex -25.005 32 12.1
    endloop
  endfacet
  facet normal 0 0 -1
    outer loop
      vertex -25.005 32 12.1
      vertex -16.5808 15.6192 12.1
      vertex -17.0025 15.901 12.1
    endloop
  endfacet
  facet normal 0 0 -1
    outer loop
      vertex -25.005 32 12.1
      vertex -17.0025 15.901 12.1
      vertex -17.5 16 12.1
    endloop
  endfacet
  facet normal 0 0 -1
    outer loop
      vertex -25.005 32 12.1
      vertex -17.5 16 12.1
      vertex -17.9975 15.901 12.1
    endloop
  endfacet
  facet normal 0 0 -1
    outer loop
      vertex 16.5808 15.6192 12.1
      vertex -25.005 32 12.1
      vertex 27 32 12.1
    endloop
  endfacet
  facet normal 0 0 -1
    outer loop
      vertex -18.4192 15.6192 12.1
      vertex -25.005 32 12.1
      vertex -17.9975 15.901 12.1
    endloop
  endfacet
  facet normal 0 0 -1
    outer loop
      vertex -18.701 15.1975 12.1
      vertex -25.005 32 12.1
      vertex -18.4192 15.6192 12.1
    endloop
  endfacet
  facet normal 0 0 -1
    outer loop
      vertex -18.8 14.7 12.1
      vertex -25.005 32 12.1
      vertex -18.701 15.1975 12.1
    endloop
  endfacet
  facet normal 0 0 -1
    outer loop
      vertex -25.005 32 12.1
      vertex -18.8 14.7 12.1
      vertex -25.005 -22.01 12.1
    endloop
  endfacet
  facet normal 0 -1 0
    outer loop
      vertex -27 -32 12.1
      vertex 27 -32 14.1
      vertex -27 -32 14.1
    endloop
  endfacet
  facet normal 0 -1 -0
    outer loop
      vertex 27 -32 14.1
      vertex -27 -32 12.1
      vertex 27 -32 12.1
    endloop
  endfacet
  facet normal -1 0 0
    outer loop
      vertex -25.005 -22.01 12.1
      vertex -25.005 32 14.1
      vertex -25.005 32 12.1
    endloop
  endfacet
  facet normal -1 -0 0
    outer loop
      vertex -25.005 32 14.1
      vertex -25.005 -22.01 12.1
      vertex -25.005 -22.01 14.1
    endloop
  endfacet
  facet normal 0 1 -0
    outer loop
      vertex -25.005 -22.01 12.1
      vertex -27 -22.01 14.1
      vertex -25.005 -22.01 14.1
    endloop
  endfacet
  facet normal 0 1 0
    outer loop
      vertex -27 -22.01 14.1
      vertex -25.005 -22.01 12.1
      vertex -27 -22.01 12.1
    endloop
  endfacet
  facet normal 0 0 1
    outer loop
      vertex 4.28381 0.00244164 15
      vertex 0.803159 -3.1888 15
      vertex 4.28381 -6.28357 15
    endloop
  endfacet
  facet normal 0 0 1
    outer loop
      vertex 4.28381 -6.28357 15
      vertex 11.1399 -6.28357 15
      vertex 4.28381 0.00244164 15
    endloop
  endfacet
  facet normal 0 0 1
    outer loop
      vertex -2.57226 -13.1396 15
      vertex 11.1399 -6.28357 15
      vertex 4.28381 -6.28357 15
    endloop
  endfacet
  facet normal 0 0 1
    outer loop
      vertex 11.1399 -6.28357 15
      vertex -2.57226 -13.1396 15
      vertex -2.57226 -20 15
    endloop
  endfacet
  facet normal 0 0 1
    outer loop
      vertex -2.57226 6.28845 15
      vertex -2.78577 0.00223176 15
      vertex 0.803274 3.19358 15
    endloop
  endfacet
  facet normal 0 0 1
    outer loop
      vertex -6 2.86011 15
      vertex -2.57226 6.28845 15
      vertex -2.57227 13.1445 15
    endloop
  endfacet
  facet normal 0 0 1
    outer loop
      vertex -6 2.86011 15
      vertex -2.57227 13.1445 15
      vertex -6 16.5723 15
    endloop
  endfacet
  facet normal 0 0 1
    outer loop
      vertex -2.57226 6.28845 15
      vertex -6 2.86011 15
      vertex -2.78577 0.00223176 15
    endloop
  endfacet
  facet normal -0.707107 0.707107 0
    outer loop
      vertex -2.57226 -13.1396 14.1
      vertex 4.28381 -6.28357 15
      vertex 4.28381 -6.28357 14.1
    endloop
  endfacet
  facet normal -0.707107 0.707107 0
    outer loop
      vertex 4.28381 -6.28357 15
      vertex -2.57226 -13.1396 14.1
      vertex -2.57226 -13.1396 15
    endloop
  endfacet
  facet normal 1 0 0
    outer loop
      vertex -2.57226 -6.28357 15.5
      vertex -2.57226 -13.1396 15
      vertex -2.57226 -6.28357 14.1
    endloop
  endfacet
  facet normal 1 -0 0
    outer loop
      vertex -2.57226 -20 15.5
      vertex -2.57226 -13.1396 15
      vertex -2.57226 -6.28357 15.5
    endloop
  endfacet
  facet normal 1 0 0
    outer loop
      vertex -2.57226 -13.1396 15
      vertex -2.57226 -20 15.5
      vertex -2.57226 -20 15
    endloop
  endfacet
  facet normal 1 0 0
    outer loop
      vertex -2.57226 -6.28357 14.1
      vertex -2.57226 -13.1396 15
      vertex -2.57226 -13.1396 14.1
    endloop
  endfacet
  facet normal 0.707217 -0.706997 0
    outer loop
      vertex -2.57226 -20 15
      vertex 11.1399 -6.28357 14.1
      vertex 11.1399 -6.28357 15
    endloop
  endfacet
  facet normal 0.707217 -0.706997 0
    outer loop
      vertex 11.1399 -6.28357 14.1
      vertex -2.57226 -20 15
      vertex -2.57226 -20 14.1
    endloop
  endfacet
  facet normal 0.675799 0.737086 -0
    outer loop
      vertex 11.1399 -6.28357 14.1
      vertex 4.28381 0.00244164 15
      vertex 11.1399 -6.28357 15
    endloop
  endfacet
  facet normal 0.675799 0.737086 0
    outer loop
      vertex 4.28381 0.00244164 15
      vertex 11.1399 -6.28357 14.1
      vertex 4.28381 0.00244164 14.1
    endloop
  endfacet
  facet normal 0.675799 0.737086 -0
    outer loop
      vertex 0.803274 3.19358 14.1
      vertex -2.57226 6.28845 15
      vertex 0.803274 3.19358 15
    endloop
  endfacet
  facet normal 0.675799 0.737086 0
    outer loop
      vertex -2.57226 6.28845 15
      vertex 0.803274 3.19358 14.1
      vertex -2.57226 6.28845 14.1
    endloop
  endfacet
  facet normal 1 1.04324e-007 0
    outer loop
      vertex -2.57226 6.28845 15
      vertex -2.57227 13.1445 14.1
      vertex -2.57227 13.1445 15
    endloop
  endfacet
  facet normal 1 1.04324e-007 0
    outer loop
      vertex -2.57227 13.1445 14.1
      vertex -2.57226 6.28845 15
      vertex -2.57226 6.28845 14.1
    endloop
  endfacet
  facet normal -1 0 0
    outer loop
      vertex -6 2.86011 14.1
      vertex -6 16.5723 15
      vertex -6 16.5723 14.1
    endloop
  endfacet
  facet normal -1 -0 0
    outer loop
      vertex -6 16.5723 15
      vertex -6 2.86011 14.1
      vertex -6 2.86011 15
    endloop
  endfacet
  facet normal -0.664466 -0.747319 0
    outer loop
      vertex 0.803159 -3.1888 14.1
      vertex 4.28381 -6.28357 15
      vertex 0.803159 -3.1888 15
    endloop
  endfacet
  facet normal -0.664466 -0.747319 -0
    outer loop
      vertex 4.28381 -6.28357 15
      vertex 0.803159 -3.1888 14.1
      vertex 4.28381 -6.28357 14.1
    endloop
  endfacet
  facet normal -0.664466 -0.747319 0
    outer loop
      vertex -6 2.86011 14.1
      vertex -2.78577 0.00223176 15
      vertex -6 2.86011 15
    endloop
  endfacet
  facet normal -0.664466 -0.747319 -0
    outer loop
      vertex -2.78577 0.00223176 15
      vertex -6 2.86011 14.1
      vertex -2.78577 0.00223176 14.1
    endloop
  endfacet
  facet normal 0 0 1
    outer loop
      vertex -2.57227 20 15.5
      vertex 4.28381 6.28845 15.5
      vertex 11.1399 6.28845 15.5
    endloop
  endfacet
  facet normal 0 0 1
    outer loop
      vertex 4.28381 6.28845 15.5
      vertex -2.57227 20 15.5
      vertex -6 16.5723 15.5
    endloop
  endfacet
  facet normal -0 0 1
    outer loop
      vertex 4.28381 6.28845 15.5
      vertex -2.57226 -6.28357 15.5
      vertex 11.1399 6.28845 15.5
    endloop
  endfacet
  facet normal -0 0 1
    outer loop
      vertex -6 -2.85583 15.5
      vertex -2.57226 -6.28357 15.5
      vertex 4.28381 6.28845 15.5
    endloop
  endfacet
  facet normal 0 0 1
    outer loop
      vertex -6 -16.568 15.5
      vertex -2.57226 -6.28357 15.5
      vertex -6 -2.85583 15.5
    endloop
  endfacet
  facet normal 0 0 1
    outer loop
      vertex -2.57226 -6.28357 15.5
      vertex -6 -16.568 15.5
      vertex -2.57226 -20 15.5
    endloop
  endfacet
  facet normal 0.675799 -0.737086 -3.31532e-007
    outer loop
      vertex 4.28381 0.00244164 15
      vertex -2.57226 -6.28357 15.5
      vertex 0.803159 -3.1888 15
    endloop
  endfacet
  facet normal 0.675799 -0.737086 0
    outer loop
      vertex -2.57226 -6.28357 14.1
      vertex 0.803159 -3.1888 15
      vertex -2.57226 -6.28357 15.5
    endloop
  endfacet
  facet normal 0.675799 -0.737086 0
    outer loop
      vertex 0.803159 -3.1888 15
      vertex -2.57226 -6.28357 14.1
      vertex 0.803159 -3.1888 14.1
    endloop
  endfacet
  facet normal 0.675799 -0.737086 2.93022e-007
    outer loop
      vertex -2.57226 -6.28357 15.5
      vertex 4.28381 0.00244164 15
      vertex 11.1399 6.28845 15.5
    endloop
  endfacet
  facet normal 0.675799 -0.737086 0
    outer loop
      vertex 11.1399 6.28845 14.1
      vertex 4.28381 0.00244164 15
      vertex 4.28381 0.00244164 14.1
    endloop
  endfacet
  facet normal 0.675799 -0.737086 0
    outer loop
      vertex 4.28381 0.00244164 15
      vertex 11.1399 6.28845 14.1
      vertex 11.1399 6.28845 15.5
    endloop
  endfacet
  facet normal 0.707091 0.707123 -0
    outer loop
      vertex 11.1399 6.28845 14.1
      vertex -2.57227 20 15.5
      vertex 11.1399 6.28845 15.5
    endloop
  endfacet
  facet normal 0.707091 0.707123 0
    outer loop
      vertex -2.57227 20 15.5
      vertex 11.1399 6.28845 14.1
      vertex -2.57227 20 14.1
    endloop
  endfacet
  facet normal -0.707107 0.707107 0
    outer loop
      vertex -6 16.5723 15
      vertex -2.57227 20 14.1
      vertex -6 16.5723 14.1
    endloop
  endfacet
  facet normal -0.707107 0.707107 0
    outer loop
      vertex -2.57227 20 14.1
      vertex -6 16.5723 15
      vertex -2.57227 20 15.5
    endloop
  endfacet
  facet normal -0.707107 0.707107 0
    outer loop
      vertex -2.57227 20 15.5
      vertex -6 16.5723 15
      vertex -6 16.5723 15.5
    endloop
  endfacet
  facet normal -0.707107 -0.707107 0
    outer loop
      vertex -2.57227 13.1445 15
      vertex -6 16.5723 15.5
      vertex -6 16.5723 15
    endloop
  endfacet
  facet normal -0.707107 -0.707107 -0
    outer loop
      vertex 4.28381 6.28845 15.5
      vertex -2.57227 13.1445 15
      vertex 4.28381 6.28845 14.1
    endloop
  endfacet
  facet normal -0.707107 -0.707107 5.61985e-007
    outer loop
      vertex -2.57227 13.1445 15
      vertex 4.28381 6.28845 15.5
      vertex -6 16.5723 15.5
    endloop
  endfacet
  facet normal -0.707107 -0.707107 0
    outer loop
      vertex -2.57227 13.1445 14.1
      vertex 4.28381 6.28845 14.1
      vertex -2.57227 13.1445 15
    endloop
  endfacet
  facet normal -0.66449 0.747297 -1.92342e-008
    outer loop
      vertex 4.28381 6.28845 15.5
      vertex 0.803274 3.19358 15
      vertex -6 -2.85583 15.5
    endloop
  endfacet
  facet normal -0.66449 0.747297 0
    outer loop
      vertex 4.28381 6.28845 14.1
      vertex 0.803274 3.19358 15
      vertex 4.28381 6.28845 15.5
    endloop
  endfacet
  facet normal -0.66449 0.747297 0
    outer loop
      vertex 0.803274 3.19358 15
      vertex 4.28381 6.28845 14.1
      vertex 0.803274 3.19358 14.1
    endloop
  endfacet
  facet normal -0.664491 0.747297 -1.27061e-007
    outer loop
      vertex -2.78577 0.00223176 15
      vertex -6 -2.85583 15.5
      vertex 0.803274 3.19358 15
    endloop
  endfacet
  facet normal -0.66449 0.747297 0
    outer loop
      vertex -6 -2.85583 14.1
      vertex -2.78577 0.00223176 15
      vertex -2.78577 0.00223176 14.1
    endloop
  endfacet
  facet normal -0.66449 0.747297 0
    outer loop
      vertex -2.78577 0.00223176 15
      vertex -6 -2.85583 14.1
      vertex -6 -2.85583 15.5
    endloop
  endfacet
  facet normal -1 0 0
    outer loop
      vertex -6 -16.568 14.1
      vertex -6 -2.85583 15.5
      vertex -6 -2.85583 14.1
    endloop
  endfacet
  facet normal -1 -0 0
    outer loop
      vertex -6 -2.85583 15.5
      vertex -6 -16.568 14.1
      vertex -6 -16.568 15.5
    endloop
  endfacet
  facet normal -0.707547 -0.706666 -0
    outer loop
      vertex -2.57226 -20 15
      vertex -6 -16.568 14.1
      vertex -2.57226 -20 14.1
    endloop
  endfacet
  facet normal -0.707547 -0.706666 0
    outer loop
      vertex -6 -16.568 14.1
      vertex -2.57226 -20 15
      vertex -6 -16.568 15.5
    endloop
  endfacet
  facet normal -0.707547 -0.706666 0
    outer loop
      vertex -6 -16.568 15.5
      vertex -2.57226 -20 15
      vertex -2.57226 -20 15.5
    endloop
  endfacet
  facet normal -1 0 0
    outer loop
      vertex -49 -22 30.1
      vertex -49 32 32.1
      vertex -49 32 30.1
    endloop
  endfacet
  facet normal -1 -0 0
    outer loop
      vertex -49 32 32.1
      vertex -49 -22 30.1
      vertex -49 -22 32.1
    endloop
  endfacet
  facet normal -0 0 1
    outer loop
      vertex -49 32 32.1
      vertex -25 -22 32.1
      vertex -25 32 32.1
    endloop
  endfacet
  facet normal 0 0 1
    outer loop
      vertex -25 -22 32.1
      vertex -49 32 32.1
      vertex -49 -22 32.1
    endloop
  endfacet
  facet normal 1 -0 0
    outer loop
      vertex -25 -22 32.1
      vertex -25 32 30.1
      vertex -25 32 32.1
    endloop
  endfacet
  facet normal 1 0 0
    outer loop
      vertex -25 32 30.1
      vertex -25 -22 32.1
      vertex -25 -22 30.1
    endloop
  endfacet
  facet normal 0 1 -0
    outer loop
      vertex -25 32 30.1
      vertex -49 32 32.1
      vertex -25 32 32.1
    endloop
  endfacet
  facet normal 0 1 0
    outer loop
      vertex -49 32 32.1
      vertex -25 32 30.1
      vertex -49 32 30.1
    endloop
  endfacet
  facet normal 0 0 -1
    outer loop
      vertex -25 -22 30.1
      vertex -45 -2.5 30.1
      vertex -25 32 30.1
    endloop
  endfacet
  facet normal 0 0 -1
    outer loop
      vertex -49 -22 30.1
      vertex -45 -2.5 30.1
      vertex -25 -22 30.1
    endloop
  endfacet
  facet normal -0 0 -1
    outer loop
      vertex -47 -2.5 30.1
      vertex -49 -22 30.1
      vertex -47 12.5 30.1
    endloop
  endfacet
  facet normal -0 0 -1
    outer loop
      vertex -45 -2.5 30.1
      vertex -49 -22 30.1
      vertex -47 -2.5 30.1
    endloop
  endfacet
  facet normal 0 0 -1
    outer loop
      vertex -45 12.5 30.1
      vertex -25 32 30.1
      vertex -45 -2.5 30.1
    endloop
  endfacet
  facet normal 0 0 -1
    outer loop
      vertex -49 32 30.1
      vertex -45 12.5 30.1
      vertex -47 12.5 30.1
    endloop
  endfacet
  facet normal 0 0 -1
    outer loop
      vertex -45 12.5 30.1
      vertex -49 32 30.1
      vertex -25 32 30.1
    endloop
  endfacet
  facet normal 0 0 -1
    outer loop
      vertex -49 32 30.1
      vertex -47 12.5 30.1
      vertex -49 -22 30.1
    endloop
  endfacet
  facet normal 0 -1 0
    outer loop
      vertex -49 -22 30.1
      vertex -25 -22 32.1
      vertex -49 -22 32.1
    endloop
  endfacet
  facet normal 0 -1 -0
    outer loop
      vertex -25 -22 32.1
      vertex -49 -22 30.1
      vertex -25 -22 30.1
    endloop
  endfacet
  facet normal -1 0 0
    outer loop
      vertex -24.99 -22 14.1
      vertex -24.99 32 32.1
      vertex -24.99 32 14.1
    endloop
  endfacet
  facet normal -1 -0 0
    outer loop
      vertex -24.99 32 32.1
      vertex -24.99 -22 14.1
      vertex -24.99 -22 32.1
    endloop
  endfacet
  facet normal -0 0 1
    outer loop
      vertex -24.99 32 32.1
      vertex -22.99 -22 32.1
      vertex -22.99 32 32.1
    endloop
  endfacet
  facet normal 0 0 1
    outer loop
      vertex -22.99 -22 32.1
      vertex -24.99 32 32.1
      vertex -24.99 -22 32.1
    endloop
  endfacet
  facet normal 1 -0 0
    outer loop
      vertex -22.99 -22 32.1
      vertex -22.99 32 14.1
      vertex -22.99 32 32.1
    endloop
  endfacet
  facet normal 1 0 0
    outer loop
      vertex -22.99 32 14.1
      vertex -22.99 -22 32.1
      vertex -22.99 -22 14.1
    endloop
  endfacet
  facet normal 0 -1 0
    outer loop
      vertex -24.99 -22 14.1
      vertex -22.99 -22 32.1
      vertex -24.99 -22 32.1
    endloop
  endfacet
  facet normal 0 -1 -0
    outer loop
      vertex -22.99 -22 32.1
      vertex -24.99 -22 14.1
      vertex -22.99 -22 14.1
    endloop
  endfacet
  facet normal -1 0 0
    outer loop
      vertex -47 -2.5 26.6
      vertex -47 12.5 30.1
      vertex -47 12.5 26.6
    endloop
  endfacet
  facet normal -1 -0 0
    outer loop
      vertex -47 12.5 30.1
      vertex -47 -2.5 26.6
      vertex -47 -2.5 30.1
    endloop
  endfacet
  facet normal 1 -0 0
    outer loop
      vertex -45 -2.5 30.1
      vertex -45 12.5 26.6
      vertex -45 12.5 30.1
    endloop
  endfacet
  facet normal 1 0 0
    outer loop
      vertex -45 12.5 26.6
      vertex -45 -2.5 30.1
      vertex -45 -2.5 26.6
    endloop
  endfacet
  facet normal 0 0 -1
    outer loop
      vertex -47 -2.5 26.6
      vertex -45 12.5 26.6
      vertex -45 -2.5 26.6
    endloop
  endfacet
  facet normal -0 0 -1
    outer loop
      vertex -45 12.5 26.6
      vertex -47 -2.5 26.6
      vertex -47 12.5 26.6
    endloop
  endfacet
  facet normal 0 -1 0
    outer loop
      vertex -47 -2.5 26.6
      vertex -45 -2.5 30.1
      vertex -47 -2.5 30.1
    endloop
  endfacet
  facet normal 0 -1 -0
    outer loop
      vertex -45 -2.5 30.1
      vertex -47 -2.5 26.6
      vertex -45 -2.5 26.6
    endloop
  endfacet
  facet normal 0 1 -0
    outer loop
      vertex -45 12.5 26.6
      vertex -47 12.5 30.1
      vertex -45 12.5 30.1
    endloop
  endfacet
  facet normal 0 1 0
    outer loop
      vertex -47 12.5 30.1
      vertex -45 12.5 26.6
      vertex -47 12.5 26.6
    endloop
  endfacet
endsolid OpenSCAD_Model
